<?xml version="1.0" standalone="no"?>
<!DOCTYPE svg PUBLIC "-//W3C//DTD SVG 20010904//EN"
 "http://www.w3.org/TR/2001/REC-SVG-20010904/DTD/svg10.dtd">
<svg version="1.0" xmlns="http://www.w3.org/2000/svg"
 width="2480.000000pt" height="2556.000000pt" viewBox="0 0 2480.000000 2556.000000"
 preserveAspectRatio="xMidYMid meet">

<g transform="translate(0.000000,2556.000000) scale(0.100000,-0.100000)"
fill="#000000" stroke="none">
<path d="M0 12780 l0 -12780 12400 0 12400 0 0 12780 0 12780 -12400 0 -12400
0 0 -12780z m13658 11888 l180 -176 7 -376 8 -376 -146 0 -146 0 -3 -894 c-2
-492 -6 -898 -10 -902 -5 -4 -11 -4 -15 0 -5 4 -9 417 -11 917 l-2 908 147 3
148 3 3 345 2 344 -195 196 c-107 108 -195 203 -195 211 0 29 13 29 31 1 9
-15 98 -107 197 -204z m-459 153 c1 -36 3 -66 4 -67 1 -2 86 -87 188 -191 166
-168 186 -192 185 -220 -1 -17 -5 -35 -10 -40 -5 -4 -6 3 -3 17 6 22 -17 48
-193 225 l-200 201 0 70 c0 53 3 71 13 71 10 0 15 -19 16 -66z m330 -156 l191
-190 0 -292 0 -293 -170 0 -170 0 0 -985 c0 -869 -2 -985 -15 -985 -13 0 -15
118 -15 1000 l0 1000 165 0 165 0 0 143 c0 78 3 200 7 270 l6 128 -196 197
c-109 109 -197 203 -197 209 0 18 24 21 32 4 3 -9 92 -101 197 -206z m-2089
-318 l0 -532 190 -190 190 -190 0 -72 c0 -94 -16 -103 -22 -12 l-5 71 -191
192 -191 191 -3 538 c-3 506 -2 537 15 537 16 0 17 -32 17 -533z m-106 387
c23 -22 20 -71 -4 -86 -20 -13 -20 -24 -20 -454 l0 -441 190 -189 190 -189 0
-462 0 -463 -163 0 -164 0 -6 -271 c-3 -149 -9 -274 -12 -277 -19 -19 -25 51
-25 301 l0 277 170 0 170 0 0 438 0 437 -195 195 -195 195 0 445 c0 434 0 445
-20 458 -25 15 -26 58 -3 84 20 22 66 24 87 2z m-140 -56 c23 -32 20 -61 -9
-88 l-25 -23 0 -437 0 -437 190 -187 190 -188 0 -359 0 -359 -165 0 -164 0 -3
-344 c-2 -189 -6 -348 -10 -352 -5 -4 -11 -4 -15 0 -4 4 -9 169 -11 367 l-4
359 171 0 171 0 0 338 0 337 -190 190 -190 190 0 438 0 439 -25 30 c-29 34
-31 55 -9 86 10 15 25 22 49 22 24 0 39 -7 49 -22z m3567 -29 c25 -25 19 -66
-11 -88 -19 -13 -20 -29 -20 -505 0 -270 3 -516 7 -546 l6 -55 182 -185 182
-185 7 -382 7 -383 -168 -2 -168 -3 -3 -190 c-1 -104 -5 -197 -8 -205 -15 -42
-24 33 -24 216 l0 201 98 6 c53 4 130 7 170 7 l72 0 0 357 0 358 -190 190
-189 190 -7 555 c-7 524 -8 556 -26 568 -26 19 -24 67 4 86 30 22 54 20 79 -5z
m-2979 -236 c24 -21 23 -45 -2 -68 -19 -17 -20 -31 -20 -189 l0 -171 195 -195
195 -195 0 -272 0 -273 475 0 475 0 0 -565 c0 -496 -2 -565 -15 -565 -13 0
-15 68 -15 550 l0 550 -480 0 -480 0 0 282 0 283 -190 190 -191 191 -2 176
c-2 168 -3 178 -25 201 -26 28 -28 44 -5 69 20 22 61 23 85 1z m2850 -30 c24
-22 23 -54 -4 -88 -21 -27 -21 -35 -26 -457 l-5 -430 191 -192 192 -191 2
-285 1 -285 -104 -6 c-57 -4 -132 -7 -166 -8 l-63 -1 0 -239 c0 -239 -5 -305
-21 -295 -5 3 -9 133 -9 290 l0 284 170 0 170 0 0 258 0 258 -195 203 -195
203 0 438 c0 429 0 440 -20 450 -23 12 -28 78 -8 98 17 17 68 15 90 -5z m-151
-94 c24 -24 19 -65 -9 -87 -9 -7 -17 -23 -18 -35 -2 -53 -5 -67 -13 -67 -6 0
-13 21 -17 48 -4 28 -14 52 -25 60 -27 19 -25 67 3 86 30 22 54 20 79 -5z
m-3847 -40 c33 -26 36 -77 6 -104 -20 -18 -20 -31 -20 -589 l0 -571 190 -190
190 -190 0 -335 c0 -184 -3 -345 -6 -357 -18 -66 -24 21 -24 330 l0 342 -195
195 -195 195 0 577 c0 379 -3 578 -10 578 -19 0 -50 40 -50 65 0 30 41 75 68
75 11 0 31 -9 46 -21z m-132 -216 c25 -22 24 -79 -2 -95 -20 -13 -20 -24 -20
-478 l0 -464 196 -197 196 -197 -3 -346 c-3 -232 -8 -349 -15 -356 -15 -15
-24 153 -24 455 l0 240 -190 190 -190 190 0 477 c0 288 -4 478 -9 478 -19 0
-41 32 -41 60 0 51 64 78 102 43z m-600 -410 c23 -21 24 -77 1 -95 -17 -12
-18 -50 -18 -545 l0 -533 193 -192 192 -193 0 -83 c0 -66 -3 -82 -15 -82 -12
0 -15 15 -15 73 l0 72 -195 195 -195 195 0 542 c0 328 -4 543 -9 543 -19 0
-41 32 -41 60 0 51 64 78 102 43z m4078 2 c19 -23 15 -67 -9 -86 -21 -17 -21
-22 -21 -371 0 -523 -12 -1178 -22 -1178 -4 0 -8 345 -8 768 0 756 0 767 -20
780 -23 14 -28 70 -8 90 17 17 73 15 88 -3z m-4198 -252 c26 -23 24 -78 -4
-97 -22 -15 -22 -17 -26 -452 l-5 -436 196 -197 196 -196 -6 -42 c-7 -51 -23
-57 -23 -10 0 29 -21 54 -196 229 l-197 196 5 451 c2 248 1 451 -3 451 -17 0
-39 33 -39 60 0 51 64 78 102 43z m-180 -160 c24 -21 24 -79 1 -94 -17 -10
-18 -44 -15 -512 l2 -502 82 -82 c46 -46 79 -83 75 -83 -21 0 -68 35 -123 92
l-62 63 -5 505 c-4 353 -9 506 -16 508 -44 15 -55 81 -19 106 29 21 57 20 80
-1z m4098 -253 c27 -27 25 -56 -5 -84 l-25 -23 0 -427 c0 -387 -6 -484 -24
-395 -3 17 -6 212 -6 433 0 390 -1 402 -20 414 -41 25 -14 102 37 102 12 0 32
-9 43 -20z m-1692 -42 c-2 -9 18 -14 69 -16 51 -2 73 -7 77 -17 4 -12 -9 -15
-79 -15 -82 0 -85 1 -85 23 0 21 7 37 17 37 2 0 2 -6 1 -12z m962 -558 c0
-384 -2 -440 -15 -440 -13 0 -15 55 -15 436 0 287 3 433 10 429 6 -3 10 -1 10
4 0 6 2 11 5 11 3 0 5 -198 5 -440z m-772 398 c20 -20 15 -76 -8 -90 -19 -12
-20 -24 -20 -385 0 -325 -2 -373 -15 -373 -13 0 -15 48 -15 373 0 361 -1 373
-20 385 -13 8 -20 23 -20 45 0 41 15 57 55 57 17 0 36 -5 43 -12z m-4106 -71
c9 -7 18 -29 20 -48 3 -31 12 -40 102 -101 55 -37 111 -78 125 -92 14 -13 153
-110 308 -216 l282 -193 12 -56 c17 -75 15 -69 24 -131 12 -94 -12 -45 -33 68
-11 57 -22 105 -24 106 -1 2 -77 54 -168 117 -91 62 -190 130 -220 152 -30 21
-135 93 -232 160 -119 82 -176 127 -173 136 4 10 2 11 -7 4 -41 -30 -118 1
-118 47 0 46 64 75 102 47z m-493 -36 c6 -10 8 -26 5 -37 -4 -16 75 -73 440
-322 245 -167 446 -309 449 -315 2 -7 19 -93 37 -192 18 -99 36 -184 40 -188
9 -11 100 15 100 28 0 14 -69 386 -75 405 -3 8 -20 25 -38 37 -17 11 -150 101
-295 200 -400 272 -387 264 -420 257 -63 -13 -109 58 -66 100 36 37 113 3 101
-44 -4 -17 7 -31 61 -70 37 -28 72 -50 78 -50 7 0 144 -90 305 -200 l294 -201
16 -67 c9 -37 29 -133 44 -214 18 -98 31 -148 40 -148 7 0 62 11 122 25 97 22
405 75 518 89 324 42 287 41 2705 41 2152 0 2318 -1 2495 -18 293 -28 585 -74
815 -128 179 -42 485 -141 661 -213 13 -6 21 10 43 81 16 48 45 139 66 202
l38 114 323 162 c178 90 359 179 402 199 63 29 77 40 77 58 0 50 45 76 90 53
25 -13 30 -22 30 -50 0 -28 -5 -37 -29 -50 -22 -11 -37 -12 -56 -5 -27 10
-105 -21 -300 -121 -49 -25 -185 -94 -301 -152 -243 -122 -205 -78 -289 -337
-26 -80 -49 -151 -52 -158 -4 -11 67 -51 93 -52 6 0 37 80 69 178 32 97 63
182 69 189 9 10 588 307 878 450 67 33 77 41 77 65 1 29 33 58 65 58 41 0 70
-53 48 -86 -13 -20 -54 -36 -77 -30 -17 4 -137 -51 -472 -221 -246 -124 -460
-232 -475 -240 -15 -8 -30 -24 -33 -36 -3 -12 -10 -31 -15 -42 -7 -17 -70
-212 -92 -283 -6 -20 1 -26 55 -54 166 -83 392 -225 521 -328 41 -33 80 -60
85 -60 12 0 14 5 125 352 26 80 53 153 59 161 13 16 144 84 565 297 248 125
282 145 282 165 0 51 62 73 100 35 22 -22 22 -25 14 -56 -7 -28 -46 -45 -83
-38 -23 5 -102 -32 -442 -205 l-414 -211 -79 -243 c-43 -133 -85 -252 -92
-264 -13 -20 -11 -24 15 -43 16 -11 32 -16 35 -12 3 5 26 74 52 153 26 79 59
182 75 228 l27 85 294 149 c725 370 739 378 733 396 -7 23 23 60 53 66 30 5
70 -13 78 -37 10 -32 -6 -75 -32 -87 -14 -6 -42 -9 -62 -6 -33 5 -88 -20 -536
-248 l-500 -254 -22 -64 c-12 -35 -48 -144 -79 -242 l-58 -177 111 -113 c101
-102 202 -216 246 -278 l17 -24 236 120 235 120 18 50 c10 28 48 143 85 256
l66 207 390 197 c372 187 390 198 409 236 21 40 26 43 69 41 42 -2 64 -61 35
-93 -15 -17 -26 -19 -64 -14 -45 6 -57 1 -336 -141 -423 -215 -494 -254 -494
-269 0 -8 -31 -110 -70 -226 -38 -116 -70 -219 -70 -228 0 -29 -23 -43 -263
-163 l-227 -113 34 -51 35 -51 238 120 c131 65 244 125 251 131 7 7 50 126 95
266 l84 254 324 166 c468 238 474 242 471 262 -4 23 42 52 71 44 27 -6 50 -49
42 -76 -8 -25 -45 -39 -77 -28 -22 8 -39 3 -100 -30 -40 -21 -212 -110 -383
-197 -170 -87 -315 -163 -321 -169 -6 -6 -48 -124 -92 -261 l-81 -250 -251
-125 c-137 -69 -250 -128 -250 -132 0 -4 20 -38 44 -75 159 -247 316 -604 412
-939 20 -71 38 -130 39 -132 2 -2 20 4 40 13 51 21 55 13 8 -16 -21 -12 -39
-23 -41 -25 -3 -2 19 -96 24 -102 4 -6 284 142 284 150 0 4 -94 194 -210 421
-115 228 -210 418 -210 423 0 5 112 66 248 136 l248 127 58 178 c31 98 69 214
84 258 l27 80 80 38 c149 72 232 125 244 157 8 24 16 30 40 30 40 0 66 -36 52
-73 -12 -30 -28 -37 -59 -26 -18 7 -54 -7 -176 -68 l-154 -77 -52 -160 c-78
-240 -101 -308 -112 -338 -9 -23 -50 -48 -249 -148 -132 -66 -239 -125 -239
-131 0 -6 95 -197 211 -425 116 -228 210 -416 208 -418 -5 -4 -201 -107 -265
-139 l-51 -26 24 -122 c13 -68 26 -125 28 -128 3 -2 67 27 143 66 340 175
1010 513 1015 513 4 0 37 -60 73 -132 36 -73 71 -138 76 -145 7 -9 69 18 247
106 130 66 242 125 248 133 6 7 45 117 87 243 84 252 92 271 109 272 7 0 21 4
32 8 11 4 6 -2 -12 -14 -25 -16 -36 -33 -49 -78 -9 -32 -26 -89 -39 -128 -13
-38 -42 -128 -64 -200 l-41 -130 -260 -134 c-144 -73 -263 -131 -264 -130 -2
2 -38 71 -80 152 -55 105 -81 145 -89 139 -7 -5 -259 -134 -562 -287 -302
-153 -554 -282 -559 -286 -9 -8 7 -135 18 -146 2 -3 64 27 138 65 244 127 927
472 935 472 5 0 36 -56 71 -125 34 -69 67 -125 72 -125 23 0 610 302 619 318
5 9 34 94 65 187 31 94 60 177 64 185 4 8 17 43 27 76 17 56 23 63 54 73 l34
10 -31 -27 c-30 -27 -52 -87 -171 -471 -12 -41 -24 -59 -46 -71 -17 -9 -151
-79 -300 -155 -148 -76 -285 -146 -302 -157 l-32 -19 -63 128 c-35 70 -64 129
-65 131 -1 3 -144 -68 -796 -398 l-267 -135 0 -47 c0 -27 2 -48 4 -48 2 0 74
36 160 81 118 61 156 85 156 100 0 10 11 26 24 35 36 23 80 1 84 -42 5 -51
-45 -82 -87 -55 -10 7 -62 -14 -173 -70 l-159 -80 6 -67 c4 -37 10 -97 13
-134 l7 -67 500 254 c275 139 501 258 501 264 1 6 2 17 3 24 1 14 42 37 66 37
20 0 47 -57 40 -81 -9 -28 -53 -43 -81 -28 -20 10 -77 -16 -516 -236 -271
-136 -497 -251 -503 -255 -6 -5 -8 -53 -3 -132 3 -67 7 -234 7 -370 1 -137 3
-248 6 -248 3 0 85 40 183 89 l178 89 68 -137 c38 -75 73 -141 78 -148 7 -9
71 20 241 107 l232 119 23 68 c13 37 54 155 91 261 l66 194 390 196 c329 166
391 201 393 220 4 27 56 62 82 55 10 -3 24 -18 30 -33 23 -57 -15 -101 -71
-81 -28 10 -59 -4 -417 -185 -212 -107 -389 -200 -393 -206 -4 -6 -33 -90 -64
-187 -31 -97 -69 -209 -83 -249 l-27 -73 -243 -125 c-134 -69 -249 -123 -256
-121 -6 3 -45 68 -85 145 l-73 141 -36 -17 c-20 -10 -99 -48 -174 -87 l-138
-70 0 -57 c0 -32 2 -58 5 -58 3 0 68 32 145 70 77 39 143 70 148 70 4 0 30
-40 57 -90 28 -49 63 -113 78 -140 24 -43 31 -50 50 -45 18 6 187 91 578 292
15 7 31 19 37 26 5 6 44 118 87 247 42 129 81 242 86 251 5 9 84 55 176 102
93 47 251 129 353 182 102 52 244 126 317 162 111 56 133 72 138 94 10 46 70
56 103 16 33 -39 -26 -105 -70 -78 -18 11 -63 -9 -412 -184 -215 -109 -432
-220 -483 -249 -108 -60 -98 -40 -203 -366 -49 -152 -68 -198 -84 -206 -12 -5
-164 -83 -339 -173 -175 -89 -320 -161 -321 -159 -2 1 -36 67 -77 145 -41 79
-79 143 -85 143 -6 0 -71 -31 -145 -69 l-134 -69 -3 -46 c-2 -25 -1 -46 3 -46
3 0 45 20 93 44 l88 44 79 -158 c44 -88 77 -161 75 -163 -3 -3 -41 -23 -85
-45 -175 -87 -208 -88 -50 -1 52 29 95 59 95 66 0 15 -100 217 -122 246 -12
16 -18 15 -96 -22 l-82 -40 0 -398 0 -398 -1141 -535 -1142 -535 -76 -3 c-64
-2 -80 0 -94 15 -15 17 -16 135 -20 1378 -3 1203 -5 1373 -20 1476 -34 239
-79 419 -149 597 l-40 102 -69 0 -69 0 0 118 0 117 -68 80 c-71 83 -150 156
-239 219 l-53 38 0 -116 0 -116 -180 0 -180 0 0 130 c0 72 4 130 9 130 9 0 21
-104 21 -182 l0 -48 149 0 149 0 6 31 c3 17 6 67 6 109 l0 78 -102 50 c-177
86 -340 135 -567 170 -93 14 -267 16 -1443 19 -841 1 -1338 -2 -1338 -7 0 -6
-7 -10 -15 -10 -8 0 -15 5 -15 10 0 6 -28 10 -65 10 -37 0 -65 -4 -65 -10 0
-5 -7 -10 -15 -10 -8 0 -15 5 -15 10 0 6 -16 10 -35 10 -19 0 -35 -4 -35 -10
0 -5 -9 -10 -20 -10 -11 0 -20 5 -20 10 0 6 -20 10 -45 10 -25 0 -45 -4 -45
-10 0 -5 -9 -10 -20 -10 -11 0 -20 5 -20 10 0 14 -107 13 -112 -1 -3 -9 -9 -9
-25 -1 -15 9 -151 11 -480 8 -403 -3 -474 -6 -588 -24 -239 -38 -372 -80 -559
-175 -385 -196 -646 -580 -751 -1105 -59 -298 -58 -273 -62 -1575 -2 -780 1
-1205 7 -1217 7 -13 7 -21 0 -25 -13 -8 -13 -115 0 -115 6 0 10 -9 10 -20 0
-11 -4 -20 -10 -20 -5 0 -10 -20 -10 -45 0 -25 5 -45 10 -45 6 0 10 -9 10 -20
0 -11 -4 -20 -10 -20 -5 0 -10 -16 -10 -35 0 -19 5 -35 10 -35 6 0 10 -7 10
-15 0 -8 -4 -15 -10 -15 -6 0 -10 -28 -10 -65 0 -37 4 -65 10 -65 6 0 10 -7
10 -15 0 -8 -4 -15 -9 -15 -6 0 -10 -730 -10 -1955 0 -1261 3 -1955 9 -1955 6
0 10 -9 10 -20 0 -11 -4 -20 -10 -20 -5 0 -10 -25 -10 -55 0 -30 5 -55 10 -55
6 0 10 -9 10 -20 0 -11 -4 -20 -10 -20 -6 0 -10 -40 -10 -100 0 -60 4 -100 10
-100 6 0 10 -7 10 -15 0 -8 -4 -15 -10 -15 -6 0 -10 -32 -10 -75 0 -60 3 -75
15 -75 8 0 15 -7 15 -15 0 -8 -7 -15 -15 -15 -12 0 -15 -14 -15 -65 0 -51 3
-65 15 -65 8 0 15 -7 15 -15 0 -8 -7 -15 -15 -15 -10 0 -15 -11 -15 -35 0 -24
5 -35 15 -35 8 0 15 -9 15 -20 0 -11 -7 -20 -15 -20 -11 0 -15 -12 -15 -45 0
-33 4 -45 15 -45 8 0 15 -9 15 -20 0 -11 -7 -20 -15 -20 -12 0 -15 -13 -15
-55 0 -41 4 -55 14 -55 9 0 12 -7 9 -20 -3 -11 -9 -20 -14 -20 -5 0 -9 -38 -9
-85 0 -50 4 -85 10 -85 6 0 10 -9 10 -20 0 -11 -4 -20 -10 -20 -6 0 -9 -345
-7 -997 3 -880 5 -1014 21 -1133 39 -305 103 -536 205 -745 143 -292 342 -492
626 -631 215 -105 425 -155 725 -174 194 -12 910 -11 910 1 0 5 9 9 20 9 11 0
20 -4 20 -10 0 -6 35 -10 85 -10 47 0 85 4 85 9 0 5 9 11 20 14 13 3 20 0 20
-9 0 -10 14 -14 55 -14 42 0 55 3 55 15 0 8 9 15 20 15 11 0 20 -7 20 -15 0
-11 12 -15 45 -15 33 0 45 4 45 15 0 8 9 15 20 15 11 0 20 -7 20 -15 0 -10 11
-15 35 -15 24 0 35 5 35 15 0 8 7 15 15 15 8 0 15 -7 15 -15 0 -12 14 -15 65
-15 51 0 65 3 65 15 0 8 7 15 15 15 8 0 15 -7 15 -15 0 -12 15 -15 75 -15 43
0 75 4 75 10 0 6 7 10 15 10 8 0 15 -4 15 -10 0 -6 40 -10 100 -10 60 0 100 4
100 10 0 6 9 10 20 10 11 0 20 -4 20 -10 0 -5 25 -10 55 -10 30 0 55 5 55 10
0 6 9 10 20 10 11 0 20 -4 20 -10 0 -7 312 -9 918 -6 1004 3 1012 4 1255 65
192 48 361 124 504 223 74 52 193 156 193 169 0 5 -64 9 -150 9 l-150 0 0 -47
c0 -79 -12 -183 -21 -183 -5 0 -9 59 -9 130 l0 130 185 0 185 0 45 58 c209
263 337 650 375 1131 6 77 10 457 10 885 l0 751 1146 543 1146 542 71 0 c119
0 107 111 107 -974 l0 -942 173 -87 c95 -48 177 -87 183 -87 5 0 42 64 83 143
40 78 75 144 77 145 1 2 146 -70 321 -159 175 -90 327 -168 339 -173 16 -8 35
-54 84 -206 102 -315 98 -308 183 -356 40 -23 257 -135 484 -248 365 -184 413
-206 431 -195 44 27 103 -39 70 -78 -33 -40 -93 -30 -103 16 -5 22 -27 38
-138 94 -73 36 -215 110 -317 162 -102 53 -260 135 -353 182 -92 47 -171 93
-176 102 -5 9 -43 122 -86 251 -42 129 -83 241 -90 249 -7 7 -60 38 -117 67
-194 102 -473 241 -495 248 -19 6 -26 0 -50 -44 -15 -27 -50 -91 -78 -140 -27
-50 -53 -90 -57 -90 -5 0 -86 39 -181 87 -94 48 -175 89 -179 91 -5 2 -8 -24
-8 -57 l0 -61 173 -87 c94 -49 188 -96 209 -105 l36 -16 74 140 c40 77 78 142
85 145 6 2 121 -52 255 -121 l243 -125 27 -73 c14 -40 49 -145 78 -233 28 -88
56 -172 61 -186 9 -22 78 -60 403 -224 357 -180 394 -197 415 -185 29 15 66 1
76 -30 9 -28 -12 -77 -35 -83 -26 -7 -78 28 -82 55 -2 19 -66 54 -393 219
l-390 198 -66 193 c-37 106 -78 224 -91 261 l-23 68 -232 119 c-170 87 -234
116 -241 107 -5 -7 -40 -73 -78 -148 l-68 -137 -218 109 -218 109 0 -273 c0
-151 -3 -321 -6 -378 l-6 -104 537 -269 c477 -238 539 -267 559 -257 28 15 72
0 81 -28 7 -24 -20 -81 -40 -81 -24 0 -65 23 -66 37 -1 7 -2 18 -3 24 0 6
-239 132 -531 279 -498 253 -530 268 -536 247 -3 -12 -9 -72 -13 -134 l-7
-111 189 -96 c134 -67 192 -92 203 -85 42 27 92 -4 87 -55 -4 -43 -48 -65 -84
-42 -13 9 -24 25 -24 35 0 15 -44 42 -185 115 -101 53 -187 96 -190 96 -3 0
-5 -21 -5 -47 l0 -48 297 -150 c164 -82 416 -210 561 -283 145 -74 264 -132
265 -130 1 2 30 61 65 131 l63 128 32 -19 c17 -11 154 -81 302 -157 149 -76
283 -146 300 -155 22 -12 34 -30 46 -71 10 -30 46 -144 81 -254 60 -185 67
-202 98 -222 39 -27 36 -29 -13 -8 -30 12 -38 23 -52 67 -9 29 -20 62 -25 73
-5 11 -35 97 -66 190 -31 94 -60 178 -65 187 -9 16 -596 318 -619 318 -5 0
-38 -56 -72 -125 -35 -69 -66 -125 -71 -125 -8 0 -668 333 -975 492 -85 44
-156 77 -158 75 -6 -6 -26 -139 -22 -142 15 -11 217 -115 653 -335 286 -145
525 -267 532 -272 8 -6 34 34 89 139 42 81 78 150 80 152 1 1 120 -57 264
-130 l260 -134 41 -130 c85 -269 101 -321 112 -354 7 -19 26 -43 42 -54 17
-10 21 -16 10 -12 -11 4 -27 8 -35 9 -10 2 -43 85 -100 252 -47 138 -89 255
-93 262 -5 7 -116 66 -247 132 -178 89 -241 116 -248 107 -5 -7 -40 -72 -76
-144 -36 -73 -69 -133 -72 -133 -7 0 -928 465 -1101 556 -56 30 -106 54 -110
54 -7 0 -57 -251 -51 -255 2 -1 84 -44 183 -94 99 -51 182 -95 184 -96 2 -2
-92 -190 -208 -419 -116 -228 -211 -419 -211 -425 0 -6 107 -65 239 -131 200
-100 240 -124 249 -147 11 -31 34 -98 112 -339 l52 -160 154 -77 c122 -61 158
-75 176 -68 31 11 47 4 59 -26 14 -37 -12 -73 -52 -73 -24 0 -32 6 -40 30 -12
32 -95 85 -244 157 l-80 38 -28 85 c-16 47 -54 163 -85 258 l-57 173 -240 124
c-132 69 -244 126 -250 129 -5 2 87 195 205 429 118 235 212 428 210 430 -3 2
-80 43 -171 91 l-166 86 -12 -53 c-10 -42 -9 -54 1 -60 7 -4 37 -22 66 -38 71
-40 60 -48 -17 -13 -34 15 -63 25 -65 23 -2 -2 -24 -77 -50 -166 -98 -347
-233 -666 -388 -921 -21 -34 -38 -65 -38 -67 0 -3 116 -63 258 -134 142 -71
263 -135 269 -143 6 -7 46 -121 88 -253 43 -132 83 -245 89 -251 6 -6 151 -82
321 -169 171 -87 343 -176 383 -197 61 -33 78 -38 100 -30 32 11 69 -3 77 -28
8 -27 -15 -70 -42 -76 -29 -8 -75 21 -71 44 3 20 -3 24 -471 262 l-324 166
-86 259 -86 260 -240 123 c-132 67 -250 127 -262 132 -19 8 -26 3 -53 -36 -17
-25 -28 -50 -24 -55 3 -5 110 -62 237 -125 242 -121 267 -136 267 -163 0 -9
32 -113 70 -230 39 -117 70 -219 70 -226 0 -15 70 -54 494 -269 279 -143 290
-147 335 -141 39 5 50 3 65 -14 29 -32 7 -91 -35 -93 -43 -2 -48 1 -69 41 -19
38 -37 49 -409 236 l-390 197 -66 207 c-37 113 -75 228 -85 256 l-18 49 -238
123 c-132 67 -244 123 -250 123 -6 0 -43 -42 -82 -92 -38 -51 -116 -142 -171
-203 -56 -60 -101 -115 -101 -122 0 -11 83 -271 134 -422 l22 -64 500 -254
c448 -228 503 -253 536 -248 20 3 48 0 62 -6 26 -12 42 -55 32 -87 -8 -24 -48
-42 -78 -37 -30 6 -60 43 -53 66 6 19 -16 30 -733 396 l-294 149 -27 84 c-16
47 -52 158 -81 248 l-54 163 -29 -29 c-27 -28 -28 -31 -14 -53 8 -13 50 -133
93 -267 l79 -242 414 -211 c339 -173 419 -210 442 -205 27 5 79 -10 79 -23 0
-3 3 -16 6 -28 7 -27 -27 -63 -60 -63 -31 0 -56 25 -56 54 0 21 -36 41 -282
166 -346 174 -550 280 -561 290 -8 7 -77 206 -131 380 -38 121 -47 140 -63
140 -9 0 -41 -22 -72 -48 -120 -104 -293 -222 -478 -326 -57 -32 -103 -62
-103 -67 0 -9 78 -253 90 -284 5 -11 11 -30 15 -42 7 -25 -6 -18 554 -299 294
-148 410 -202 427 -198 23 6 63 -10 76 -30 22 -32 -7 -86 -46 -86 -34 0 -66
28 -67 58 0 24 -10 32 -77 65 -236 117 -868 440 -876 447 -5 5 -35 86 -66 180
-31 94 -59 173 -62 176 -5 4 -83 -29 -97 -42 -3 -3 73 -249 106 -341 15 -42
18 -44 217 -144 110 -56 251 -127 311 -158 208 -106 272 -132 300 -121 19 7
34 6 56 -5 24 -13 29 -22 29 -50 0 -28 -5 -37 -30 -50 -45 -23 -90 3 -90 53 0
18 -15 29 -77 58 -43 20 -224 109 -402 199 l-324 162 -29 94 c-17 52 -34 103
-39 114 -4 11 -18 53 -30 93 -11 39 -24 74 -29 77 -4 3 -57 -16 -116 -41 -306
-128 -738 -241 -1124 -293 -399 -54 -581 -61 -1707 -62 l-1003 -1 0 -376 c0
-366 1 -378 20 -390 13 -8 20 -23 20 -45 0 -41 -15 -57 -55 -57 -40 0 -55 16
-55 57 0 22 7 37 20 45 19 12 20 24 20 390 l0 378 -397 0 -396 0 6 -122 c4
-66 7 -190 7 -275 l0 -153 165 0 165 0 0 -462 0 -463 -190 -189 -190 -189 0
-441 c0 -430 0 -441 20 -454 24 -15 27 -64 4 -86 -20 -21 -63 -20 -86 1 -24
22 -23 69 2 85 20 13 20 24 20 458 l0 445 195 195 195 195 0 437 0 438 -170 0
-171 0 1 288 1 287 -62 3 c-60 3 -61 2 -55 -20 3 -13 6 -170 6 -350 l0 -328
165 0 165 0 0 -359 0 -359 -190 -188 -190 -187 0 -437 0 -437 25 -23 c29 -27
32 -56 9 -88 -21 -30 -77 -30 -98 0 -22 31 -20 52 9 86 l25 30 0 439 0 438
190 190 190 190 0 337 0 338 -171 0 -171 0 4 365 4 366 -89 -3 -88 -3 1 -350
0 -350 -190 -190 -190 -190 0 -571 c0 -563 0 -571 20 -589 50 -45 -5 -141 -67
-119 -58 20 -69 102 -18 126 l25 11 0 576 0 576 195 195 195 195 0 342 0 343
-53 0 -52 0 4 -351 3 -351 -196 -197 -196 -197 0 -464 c0 -454 0 -465 20 -478
25 -15 27 -68 3 -94 -34 -37 -103 -10 -103 42 0 28 22 60 41 60 5 0 9 190 9
477 l0 478 189 190 189 190 4 348 5 347 -284 0 -283 0 0 -82 0 -83 -192 -193
-193 -192 0 -533 c0 -495 1 -533 18 -545 22 -17 22 -70 0 -94 -34 -37 -103
-10 -103 42 0 28 22 60 41 60 5 0 9 215 9 543 l0 542 195 195 195 195 0 72 0
73 -56 0 -57 0 6 -48 6 -49 -196 -194 -195 -194 4 -438 c4 -436 4 -438 26
-453 43 -30 19 -114 -32 -114 -35 0 -66 28 -66 60 0 27 22 60 39 60 4 0 5 203
3 451 l-5 451 194 194 c172 172 195 198 199 232 l6 39 -195 7 c-399 14 -763
59 -1110 138 -73 16 -137 26 -141 21 -4 -4 -20 -73 -34 -153 -14 -80 -32 -166
-39 -192 l-12 -48 -294 -200 c-162 -110 -299 -200 -305 -200 -6 0 -41 -22 -78
-50 -54 -39 -65 -53 -61 -70 12 -47 -65 -81 -101 -44 -43 42 3 113 65 100 24
-4 46 5 117 51 207 134 632 429 637 443 2 8 18 89 35 180 16 91 32 173 34 183
5 19 -12 29 -70 41 l-32 7 -31 -168 c-18 -92 -34 -175 -37 -184 -2 -9 -205
-153 -449 -320 -400 -273 -445 -306 -440 -327 8 -32 -33 -71 -68 -65 -37 7
-59 35 -52 66 8 32 49 60 74 52 19 -6 201 113 661 428 274 188 241 146 278
349 17 95 28 175 24 179 -4 3 -69 27 -145 52 -164 56 -323 122 -466 193 -58
29 -107 52 -109 50 -2 -3 -91 -462 -92 -476 0 -3 -178 -127 -395 -275 -346
-237 -393 -273 -389 -292 12 -47 -65 -83 -100 -47 -42 41 -4 106 59 101 24 -1
101 47 400 252 204 139 376 259 383 265 7 7 33 120 57 251 l45 240 -22 17
c-13 9 -26 14 -29 10 -4 -4 -24 -100 -45 -213 l-37 -207 -473 -323 c-450 -308
-473 -326 -474 -355 0 -42 -20 -65 -60 -70 -48 -7 -72 13 -73 60 -1 48 32 78
78 70 26 -5 62 17 286 168 526 357 679 463 684 479 3 9 23 107 43 217 l38 200
-115 75 c-97 64 -209 149 -361 274 l-27 22 -169 -116 c-93 -63 -170 -117 -172
-118 -2 -2 -25 -121 -53 -266 -27 -145 -53 -266 -57 -270 -10 -9 -560 -385
-648 -443 -52 -34 -73 -55 -77 -74 -9 -42 -31 -65 -62 -65 -31 1 -65 33 -65
63 0 36 59 64 105 48 6 -2 172 108 371 244 l360 248 43 232 c24 128 45 242 46
253 1 11 3 25 4 31 0 7 79 65 174 129 94 65 174 120 176 122 10 8 -75 84 -89
80 -13 -3 -330 -216 -352 -236 -4 -3 -27 -118 -52 -256 -26 -137 -50 -259 -55
-271 -5 -11 -130 -103 -277 -204 -396 -270 -466 -321 -460 -337 8 -19 -29 -53
-58 -53 -26 0 -56 33 -56 61 0 27 34 49 71 47 30 -2 78 28 385 240 194 133
356 248 362 255 7 9 102 490 102 518 0 4 83 64 185 133 102 70 185 130 185
135 0 4 -12 18 -26 32 -14 13 -57 61 -96 107 -39 45 -76 82 -84 82 -7 0 -11 6
-9 13 3 7 -26 55 -65 107 -139 189 -351 584 -409 763 -13 37 -26 67 -29 67 -4
0 -35 -19 -70 -42 -41 -28 -61 -48 -59 -58 2 -9 122 -188 266 -399 145 -210
261 -384 259 -386 -1 -1 -100 -69 -218 -150 -118 -81 -222 -154 -231 -163 -11
-11 -26 -72 -43 -167 -15 -82 -36 -200 -47 -262 l-21 -112 -92 -60 c-134 -87
-195 -140 -204 -175 -6 -24 -15 -32 -36 -34 -49 -6 -83 46 -56 88 5 9 22 13
44 12 31 -2 56 11 176 94 77 53 140 99 140 102 0 20 92 501 99 518 5 11 101
83 213 159 111 76 211 145 220 152 15 13 11 23 -50 111 -37 53 -157 229 -268
391 l-202 295 85 59 c60 42 83 64 80 76 -23 86 -74 230 -79 228 -4 -1 -218
-146 -475 -322 -257 -176 -469 -320 -472 -319 -3 0 -45 59 -94 130 -48 71 -94
129 -100 129 -10 0 -330 -212 -423 -281 -31 -23 -32 -27 -79 -271 -49 -255
-59 -295 -72 -291 -5 1 -19 -4 -33 -11 -20 -11 -19 -8 7 15 32 28 33 34 62
209 47 282 59 338 78 356 31 29 456 319 467 319 6 -1 52 -61 101 -135 50 -74
93 -134 96 -132 3 1 213 144 467 317 258 176 461 322 462 330 0 8 -8 43 -18
76 l-17 61 -435 -298 c-239 -164 -438 -299 -441 -299 -4 0 -42 52 -85 115 -44
63 -84 115 -89 115 -8 0 -556 -368 -572 -383 -1 -2 -25 -122 -53 -268 -36
-187 -56 -268 -68 -277 -24 -18 -37 -15 -19 6 10 11 33 112 63 277 31 172 53
266 63 276 13 14 301 215 552 387 l46 31 82 -120 82 -119 92 64 c51 35 245
168 432 296 187 128 341 233 342 234 3 2 -18 79 -22 84 -1 2 -40 -23 -86 -56
-66 -45 -83 -63 -81 -79 3 -23 -31 -53 -60 -53 -24 0 -58 35 -58 60 0 35 37
63 75 56 28 -6 44 1 116 50 46 32 85 58 86 59 3 1 -45 256 -49 260 -2 3 -187
-120 -410 -273 -343 -234 -405 -281 -405 -301 0 -24 -37 -60 -60 -61 -19 0
-53 42 -53 66 0 36 28 57 68 50 30 -4 45 1 91 32 31 21 216 146 412 279 l355
242 -12 93 c-19 133 -44 402 -52 551 l-7 128 -132 -90 c-73 -50 -136 -91 -140
-91 -4 0 -48 59 -97 130 -48 72 -93 130 -98 130 -6 0 -38 -19 -72 -42 -75 -51
-350 -240 -353 -242 -1 -1 -27 -123 -58 -271 -30 -148 -58 -271 -61 -274 -3
-3 -164 -114 -357 -247 -297 -203 -352 -245 -355 -267 -4 -29 -48 -67 -79 -67
-10 0 -27 13 -36 30 -16 26 -16 34 -5 57 11 24 20 28 56 29 35 1 62 14 160 79
87 58 467 317 594 406 5 3 31 124 58 269 28 145 53 266 56 269 3 3 108 76 232
162 l227 157 22 -27 c13 -14 55 -72 94 -129 40 -56 76 -105 81 -108 8 -5 247
150 260 170 6 9 0 106 -8 114 -1 2 -52 -30 -113 -71 l-110 -75 -64 86 c-35 48
-79 108 -97 135 -18 26 -35 47 -37 47 -9 0 -560 -375 -585 -399 -4 -3 -29
-125 -57 -270 -27 -145 -54 -267 -58 -271 -9 -8 -641 -445 -793 -549 -104 -71
-110 -76 -110 -107 0 -11 -11 -26 -24 -33 -53 -29 -108 35 -73 83 11 14 25 19
57 18 39 -2 57 8 229 127 102 70 279 192 393 269 320 218 294 196 313 277 8
39 32 159 53 267 l37 196 70 48 c39 26 180 124 314 217 134 93 247 165 251
160 4 -4 46 -65 94 -136 48 -70 91 -127 95 -127 5 0 41 23 82 51 41 28 89 60
106 72 29 20 33 27 33 70 0 26 -2 47 -6 47 -3 0 -32 -18 -66 -41 -50 -34 -62
-39 -73 -28 -7 8 -54 74 -103 147 l-91 132 102 68 c128 86 132 88 123 74 -4
-7 -43 -39 -87 -73 -44 -34 -83 -67 -85 -74 -5 -13 107 -188 146 -229 18 -19
20 -18 79 20 l61 39 -1 832 c0 497 -4 833 -10 833 -5 0 -9 9 -9 20 0 11 5 20
10 20 6 0 10 35 10 85 0 47 -4 85 -9 85 -5 0 -11 9 -14 20 -3 13 0 20 9 20 10
0 14 14 14 55 0 42 -3 55 -15 55 -8 0 -15 9 -15 20 0 11 7 20 15 20 11 0 15
12 15 45 0 33 -4 45 -15 45 -8 0 -15 9 -15 20 0 11 7 20 15 20 10 0 15 11 15
35 0 24 -5 35 -15 35 -8 0 -15 7 -15 15 0 8 7 15 15 15 12 0 15 14 15 65 0 51
-3 65 -15 65 -8 0 -15 7 -15 15 0 8 7 15 15 15 12 0 15 15 15 75 0 43 -4 75
-10 75 -5 0 -10 7 -10 15 0 8 5 15 10 15 6 0 10 40 10 100 0 60 -4 100 -10
100 -5 0 -10 9 -10 20 0 11 5 20 10 20 6 0 10 25 10 55 0 30 -4 55 -10 55 -5
0 -10 9 -10 20 0 11 4 20 10 20 6 0 10 571 10 1675 -1 1073 -4 1675 -10 1675
-6 0 -10 9 -10 20 0 11 5 20 10 20 6 0 10 25 10 55 0 30 -4 55 -10 55 -5 0
-10 9 -10 20 0 11 5 20 10 20 6 0 10 40 10 100 0 60 -4 100 -10 100 -5 0 -10
7 -10 15 0 8 5 15 10 15 6 0 10 32 10 75 0 60 -3 75 -15 75 -8 0 -15 7 -15 15
0 8 7 15 15 15 12 0 15 14 15 65 0 51 -3 65 -15 65 -8 0 -15 7 -15 15 0 8 7
15 15 15 10 0 15 11 15 35 0 24 -5 35 -15 35 -8 0 -15 9 -15 20 0 11 7 20 15
20 11 0 15 12 15 45 0 33 -4 45 -15 45 -8 0 -15 9 -15 20 0 11 7 20 15 20 12
0 15 13 15 55 0 30 -4 55 -10 55 -5 0 -10 9 -10 20 0 11 5 20 10 20 6 0 10 35
10 85 0 50 -4 85 -10 85 -5 0 -10 9 -10 20 0 11 4 20 9 20 6 0 10 377 10 953
l1 952 -45 29 c-34 21 -49 25 -59 17 -28 -24 -157 -223 -153 -235 3 -8 42 -41
86 -75 44 -34 83 -66 87 -73 9 -14 5 -12 -123 74 l-102 68 91 132 c49 73 96
139 103 147 11 11 20 8 58 -18 25 -17 48 -31 51 -31 3 0 6 21 6 48 0 34 -5 50
-17 59 -10 6 -51 34 -92 62 -41 28 -77 51 -81 51 -4 0 -50 -61 -101 -135 -52
-74 -96 -134 -100 -133 -3 2 -145 99 -315 217 l-309 214 -39 204 c-21 113 -45
232 -53 266 -17 72 5 53 -311 269 -114 77 -291 199 -393 269 -172 119 -190
129 -229 127 -32 -1 -46 4 -57 18 -35 48 20 112 73 83 13 -7 24 -22 24 -33 0
-31 6 -36 110 -107 152 -104 784 -541 793 -549 4 -4 31 -126 58 -271 28 -145
53 -267 57 -270 11 -10 321 -224 460 -319 69 -47 127 -79 131 -74 5 5 37 50
73 100 99 139 111 154 120 154 5 0 50 -27 100 -61 101 -68 108 -67 108 12 l0
46 -115 77 c-64 42 -119 74 -124 72 -4 -3 -40 -52 -80 -108 -39 -57 -81 -115
-94 -129 l-22 -27 -227 157 c-124 86 -229 159 -232 162 -3 3 -28 124 -56 269
-27 144 -51 264 -52 265 -14 12 -260 181 -462 317 -227 153 -253 168 -292 168
-36 0 -47 5 -61 26 -16 24 -16 28 2 60 11 21 26 34 38 34 30 0 75 -38 79 -67
3 -22 58 -64 355 -267 193 -133 354 -244 357 -247 3 -3 31 -126 61 -274 31
-148 57 -270 58 -271 3 -2 278 -191 353 -242 34 -23 66 -42 72 -42 5 0 50 58
98 130 49 71 93 130 97 130 5 0 61 -36 125 -81 l117 -80 6 78 c4 43 12 143 19
223 6 80 20 210 31 290 10 80 19 153 19 162 0 14 -266 201 -741 520 -46 31
-61 36 -91 32 -40 -7 -68 14 -68 50 0 24 34 66 53 66 23 -1 60 -37 60 -61 0
-20 61 -66 396 -295 218 -149 397 -271 398 -270 8 5 52 261 46 266 -4 4 -39
28 -76 54 -59 40 -74 46 -102 40 -61 -11 -98 53 -55 96 11 11 28 20 38 20 29
0 63 -30 60 -53 -2 -17 14 -33 72 -73 79 -55 82 -55 93 3 l6 32 -362 247
c-199 136 -390 267 -424 291 l-61 44 -83 -120 -82 -120 -46 31 c-251 172 -539
373 -552 387 -10 10 -32 104 -63 276 -31 168 -53 266 -64 278 -15 17 -14 17 9
9 23 -9 27 -23 71 -248 26 -131 50 -253 55 -271 7 -28 43 -56 288 -223 154
-104 284 -190 290 -190 5 0 46 52 89 116 43 63 84 113 90 111 7 -3 200 -134
430 -292 230 -157 421 -284 424 -280 4 3 14 34 24 68 13 48 14 65 5 73 -7 7
-214 150 -461 319 -332 226 -451 303 -457 293 -47 -79 -178 -253 -191 -252
-15 1 -426 280 -461 313 -19 18 -31 74 -78 356 -29 175 -30 181 -62 209 -26
23 -27 26 -7 15 14 -7 29 -12 33 -11 13 4 19 -22 72 -288 l50 -255 224 -153
c123 -84 228 -151 232 -150 4 2 48 61 96 132 49 71 92 129 96 128 5 0 212
-139 460 -310 249 -170 457 -312 463 -315 8 -5 25 31 49 106 21 61 38 117 39
124 1 7 -33 36 -75 65 l-77 54 202 294 c111 162 231 339 268 392 61 88 65 98
50 111 -9 7 -109 76 -221 152 -111 76 -207 148 -212 159 -7 17 -99 499 -99
518 0 3 -63 49 -140 102 -120 83 -145 96 -176 94 -22 -1 -39 3 -44 12 -27 42
7 94 56 88 21 -2 30 -10 36 -34 9 -35 71 -89 205 -176 l91 -60 21 -116 c12
-64 34 -182 48 -262 15 -80 31 -150 36 -157 7 -10 167 -122 450 -314 5 -4
-109 -179 -253 -390 -145 -211 -265 -390 -267 -399 -3 -14 92 -90 114 -90 5 0
17 24 27 53 31 90 212 447 283 559 37 60 102 153 143 209 41 56 74 105 72 110
-1 5 3 9 8 9 6 0 25 17 43 38 17 20 63 70 101 109 38 40 67 75 65 76 -2 2 -88
61 -191 132 -104 70 -188 132 -188 139 -1 22 -97 516 -101 519 -2 2 -164 113
-359 247 -310 213 -359 244 -389 242 -37 -2 -71 20 -71 47 0 28 30 61 56 61
29 0 66 -34 58 -53 -6 -16 64 -67 460 -337 147 -101 272 -193 277 -204 5 -12
29 -133 55 -271 25 -137 48 -253 52 -256 4 -4 87 -61 186 -129 l179 -122 44
44 44 44 -181 123 c-99 68 -181 128 -181 135 -4 41 -14 96 -51 294 l-43 223
-360 248 c-316 217 -363 247 -386 240 -30 -8 -66 7 -83 34 -8 13 -7 24 4 44
32 56 97 46 115 -20 9 -30 23 -46 80 -84 99 -65 638 -434 647 -442 4 -4 30
-125 57 -270 28 -145 51 -264 53 -266 17 -15 332 -227 342 -231 8 -3 62 34
122 82 60 48 169 128 243 176 74 49 136 89 137 91 4 3 -72 411 -81 436 -5 16
-159 123 -684 479 -224 151 -260 173 -286 168 -46 -8 -79 22 -78 70 1 47 25
67 73 60 40 -5 60 -28 60 -70 1 -29 24 -47 474 -355 l473 -323 32 -177 c53
-288 48 -272 77 -259 13 6 24 19 24 28 0 45 -91 495 -102 506 -7 6 -179 126
-383 265 -299 205 -376 253 -400 252 -63 -5 -101 60 -59 101 35 36 112 0 100
-47 -4 -19 43 -55 389 -291 l393 -270 37 -190 c20 -105 41 -218 47 -251 6 -33
12 -61 13 -63 2 -2 34 13 73 32 123 62 330 146 496 202 88 30 160 57 160 62
-1 4 -17 89 -35 189 -18 100 -35 186 -38 191 -7 9 -337 236 -665 456 -153 103
-224 145 -237 141 -25 -8 -66 20 -74 52 -15 63 83 93 114 34z m5005 -133 c21
-30 20 -54 -4 -78 -27 -27 -56 -25 -86 5 -23 23 -33 25 -109 25 l-84 0 -3
-270 c-2 -198 -6 -272 -15 -282 -10 -10 -13 47 -13 285 l0 297 103 0 c91 0
106 2 122 20 24 27 70 26 89 -2z m4262 -153 c10 -15 14 -34 10 -49 -7 -28 -53
-50 -88 -41 -19 5 -85 -25 -294 -131 -148 -76 -345 -176 -439 -224 l-170 -87
-33 -99 c-18 -54 -37 -103 -42 -108 -11 -11 -1 63 10 79 4 6 15 40 25 76 l19
66 239 119 c132 65 287 145 346 178 205 114 289 154 299 144 7 -7 10 -5 9 3
-3 69 17 99 63 99 20 0 35 -8 46 -25z m-4028 -27 c7 -7 12 -26 12 -43 0 -40
-16 -55 -57 -55 -22 0 -37 7 -45 20 -12 18 -24 20 -155 20 l-143 0 0 -157 c0
-159 -5 -203 -21 -203 -5 0 -9 88 -9 195 l0 195 153 0 c141 0 155 2 172 20 20
22 74 27 93 8z m2382 -312 c0 -73 -4 -127 -10 -131 -6 -4 -10 24 -10 78 0 47
-3 99 -6 116 l-6 31 -149 0 -149 0 0 -47 c0 -79 -12 -183 -21 -183 -5 0 -9 59
-9 130 l0 130 180 0 180 0 0 -124z m-1400 59 c0 -24 -5 -35 -15 -35 -10 0 -15
10 -15 29 0 25 6 33 28 40 1 1 2 -15 2 -34z m-8168 -37 c25 -18 192 -132 370
-254 177 -121 354 -243 392 -270 l69 -49 38 -210 c21 -116 41 -234 45 -263 6
-50 10 -56 65 -100 32 -26 56 -48 55 -49 -2 -2 -30 15 -64 37 -69 47 -56 8
-122 351 l-42 216 -86 60 c-726 498 -815 563 -774 563 4 0 28 -15 54 -32z
m13542 -596 c3 -5 -16 -20 -42 -33 -166 -87 -509 -264 -692 -358 l-215 -110
-85 -252 -85 -253 -64 -33 c-82 -43 -92 -35 -12 9 l61 33 26 85 c14 47 29 96
34 110 5 14 30 91 55 171 25 81 51 151 58 157 6 5 208 109 447 230 239 121
449 227 465 236 34 18 42 19 49 8z m-14542 -864 c55 -37 57 -39 71 -105 9 -38
30 -156 47 -263 l32 -195 36 -34 37 -34 -35 19 c-19 10 -38 23 -42 28 -3 5
-27 118 -53 250 -25 133 -48 250 -50 262 -3 11 -29 38 -60 59 -95 65 -81 77
17 13z m13071 -535 c-18 -9 -33 -22 -33 -29 0 -7 30 -70 66 -140 67 -131 96
-194 89 -194 -6 0 -175 326 -175 337 0 10 57 42 75 42 6 0 -5 -8 -22 -16z
m2283 -170 c-4 -4 -35 -23 -69 -43 l-61 -36 -84 -249 c-45 -138 -88 -255 -95
-262 -13 -12 -96 -48 -84 -36 4 4 24 16 43 27 31 18 40 32 59 91 12 39 50 156
84 262 l62 191 42 19 c88 38 115 48 103 36z m-2138 -228 c-3 -3 -9 2 -12 12
-6 14 -5 15 5 6 7 -7 10 -15 7 -18z m42 -79 c0 -6 -7 -1 -15 10 -8 10 -15 23
-15 28 0 6 7 1 15 -10 8 -10 15 -23 15 -28z m40 -79 c0 -16 -18 3 -23 25 -6
22 -5 22 8 4 8 -11 15 -24 15 -29z m28 -62 c-3 -3 -9 2 -12 12 -6 14 -5 15 5
6 7 -7 10 -15 7 -18z m-7379 -471 l3 -346 -196 -197 -196 -197 0 -464 c0 -454
0 -465 20 -478 25 -15 27 -68 3 -94 -34 -37 -103 -10 -103 42 0 28 22 60 41
60 5 0 9 190 9 478 l0 477 190 190 190 190 0 240 c0 302 9 470 24 455 7 -7 12
-124 15 -356z m130 -9 l1 -340 -190 -190 -190 -190 0 -571 c0 -563 0 -571 20
-589 50 -45 -5 -141 -67 -119 -58 20 -69 102 -18 126 l25 11 0 576 0 576 195
195 195 195 0 341 c0 187 3 344 7 348 18 17 22 -50 22 -369z m-1056 74 l-196
-197 5 -436 c4 -436 4 -436 26 -452 43 -30 19 -114 -32 -114 -35 0 -66 28 -66
60 0 27 22 60 39 60 4 0 5 203 3 451 l-5 451 194 193 c146 147 195 201 197
222 6 55 15 58 23 8 l8 -50 -196 -196z m327 209 l0 -83 -192 -193 -193 -192 0
-533 c0 -495 1 -533 18 -545 22 -17 22 -70 0 -94 -34 -37 -103 -10 -103 42 0
28 22 60 41 60 5 0 9 215 9 543 l0 542 195 195 195 195 0 72 c0 58 3 73 15 73
12 0 15 -16 15 -82z m934 60 c3 -13 6 -170 6 -350 l0 -328 165 0 165 0 0 -359
0 -359 -190 -188 -190 -187 0 -437 0 -437 25 -23 c29 -27 32 -56 9 -88 -32
-46 -114 -17 -114 39 0 10 11 31 25 47 l25 30 0 439 0 438 190 190 190 190 0
337 0 338 -170 0 -170 0 0 273 c0 371 11 518 34 435z m149 -100 c4 -66 7 -190
7 -275 l0 -153 165 0 165 0 0 -462 0 -463 -190 -189 -190 -189 0 -441 c0 -430
0 -441 20 -454 24 -15 27 -64 4 -86 -20 -21 -63 -20 -86 1 -24 22 -23 68 2 86
20 14 20 24 20 458 l0 444 195 195 195 195 0 437 0 438 -170 0 -170 0 0 274
c0 151 3 281 6 290 14 37 21 9 27 -106z m3291 91 c3 -17 6 -139 6 -270 l0
-239 63 -1 c34 -1 109 -4 166 -8 l104 -6 -1 -285 -2 -285 -192 -191 -191 -192
5 -430 c5 -422 5 -430 26 -457 26 -33 28 -62 5 -87 -18 -20 -73 -24 -91 -6
-20 20 -15 86 8 98 20 10 20 21 20 450 l0 438 195 203 195 203 0 258 0 258
-170 0 -170 0 0 290 c0 265 7 342 24 259z m-2474 -352 c0 -361 1 -373 20 -385
13 -8 20 -23 20 -45 0 -41 -15 -57 -55 -57 -40 0 -55 16 -55 57 0 22 7 37 20
45 19 12 20 24 20 385 0 325 2 373 15 373 13 0 15 -48 15 -373z m148 83 l3
-270 84 0 c76 0 86 2 109 25 30 30 59 32 86 5 24 -24 25 -48 4 -78 -19 -28
-65 -29 -89 -2 -16 18 -31 20 -122 20 l-103 0 0 297 c0 238 3 295 13 285 9
-10 13 -84 15 -282z m2464 80 l3 -195 168 -3 167 -2 -6 -383 -7 -382 -182
-185 -182 -185 -6 -55 c-4 -30 -7 -276 -7 -547 0 -472 1 -493 19 -502 43 -23
33 -95 -14 -107 -58 -14 -103 65 -57 98 18 12 19 44 26 568 l7 555 189 190
190 190 0 358 0 357 -78 0 c-44 0 -120 3 -170 6 l-92 7 0 198 c0 108 3 205 6
214 16 41 24 -15 26 -195z m-2338 178 c3 -13 6 -94 6 -180 l0 -158 143 0 c131
0 143 2 155 20 14 23 70 28 90 8 16 -16 16 -70 0 -86 -19 -19 -73 -14 -93 8
-17 18 -31 20 -172 20 l-153 0 0 195 c0 178 8 233 24 173z m526 -411 c0 -379
-2 -434 -15 -434 -13 0 -15 55 -15 434 0 378 2 433 15 433 13 0 15 -55 15
-433z m130 -132 l0 -565 -475 0 -475 0 0 -273 0 -272 -195 -195 -195 -195 0
-171 c0 -158 1 -172 20 -189 24 -22 25 -42 3 -67 -20 -22 -61 -23 -85 -1 -24
21 -23 42 4 70 21 22 22 34 25 201 l3 177 190 190 190 190 0 283 0 282 480 0
480 0 0 550 c0 482 2 550 15 550 13 0 15 -69 15 -565z m280 -420 l0 -985 170
0 170 0 0 -292 0 -293 -202 -202 c-111 -112 -206 -203 -210 -203 -26 0 12 45
189 222 l196 197 -6 113 c-4 62 -7 184 -7 271 l0 157 -165 0 -165 0 0 1000 c0
882 2 1000 15 1000 13 0 15 -116 15 -985z m-8653 925 c3 -14 21 -40 40 -58 20
-18 33 -36 29 -39 -8 -8 -66 17 -66 29 0 6 -14 8 -35 4 -29 -6 -39 -3 -59 17
-17 17 -23 32 -19 46 15 58 96 59 110 1z m4945 -43 l-82 -82 -2 -502 c-3 -468
-2 -502 15 -512 22 -14 23 -68 0 -93 -34 -37 -103 -10 -103 42 0 27 18 54 41
62 7 2 12 155 16 508 l5 505 57 59 c54 57 106 96 126 96 5 0 -27 -37 -73 -83z
m3881 16 c4 -38 7 -443 7 -900 l0 -833 146 0 147 0 -8 -376 -7 -375 -189 -187
c-104 -102 -192 -195 -195 -205 -5 -16 -8 -17 -15 -6 -5 8 -9 18 -9 23 0 6 88
98 195 206 l195 196 -2 344 -3 345 -147 3 -148 3 0 883 c0 486 3 898 6 915 10
50 21 36 27 -36z m390 -395 c4 -227 7 -572 7 -766 0 -349 0 -354 21 -371 24
-19 28 -63 9 -86 -15 -18 -71 -20 -88 -3 -20 20 -15 76 8 90 20 13 20 24 20
780 0 423 4 768 8 768 5 0 12 -186 15 -412z m-273 -24 l0 -427 25 -23 c14 -13
25 -32 25 -44 0 -26 -34 -60 -62 -60 -52 0 -80 76 -38 102 19 12 20 24 20 414
0 221 3 416 6 433 18 89 24 -8 24 -395z m150 351 c0 -24 -5 -35 -15 -35 -10 0
-15 10 -15 29 0 25 6 33 28 40 1 1 2 -15 2 -34z m6484 -637 c36 -51 6 -93 -58
-85 -26 4 -50 1 -66 -8 -60 -34 -68 -7 -10 30 24 15 40 33 40 45 0 41 69 54
94 18z m-8145 -174 c-10 -12 -28 -15 -81 -12 -59 3 -68 1 -68 -14 0 -10 -4
-18 -10 -18 -5 0 -10 14 -10 30 l0 30 91 0 c82 0 90 -2 78 -16z m-339 -477 l0
-72 -190 -190 -190 -190 0 -531 c0 -292 -3 -533 -6 -537 -27 -27 -29 17 -26
541 l3 537 191 191 190 191 5 67 c3 36 10 66 14 66 5 0 9 -33 9 -73z m-7027
-722 c9 -8 17 -20 19 -26 2 -7 155 -12 511 -16 l507 -6 75 -78 c105 -110 98
-137 -8 -31 l-82 82 -502 2 c-468 3 -502 2 -512 -14 -25 -40 -111 -11 -111 36
0 55 67 88 103 51z m5501 -17 c21 -29 20 -57 -1 -80 -21 -24 -79 -24 -94 0
-10 16 -44 17 -512 14 l-502 -2 -82 -82 c-46 -46 -83 -79 -83 -75 0 21 35 68
92 123 l63 62 505 5 c353 4 506 9 508 16 15 44 81 55 106 19z m4159 -28 c4
-16 4 -36 1 -44 -3 -8 3 -19 14 -25 44 -23 35 -95 -13 -107 -58 -14 -98 53
-56 95 10 10 21 39 25 65 8 53 21 60 29 16z m-9819 -136 c9 -8 16 -19 16 -23
0 -4 203 -5 451 -3 l451 5 196 -197 c174 -173 200 -196 229 -196 51 0 47 -17
-5 -23 l-47 -6 -196 196 -197 196 -436 -5 c-436 -4 -436 -4 -452 -26 -30 -43
-114 -19 -114 32 0 56 67 88 104 50z m5820 -16 c9 -12 16 -31 16 -42 0 -53
-84 -78 -114 -34 -16 22 -16 22 -452 26 l-436 5 -197 -196 -196 -196 -47 6
c-52 6 -56 23 -5 23 29 0 55 23 229 196 l196 197 451 -5 c248 -2 451 -1 451 3
0 4 7 15 16 23 23 24 70 20 88 -6z m3122 -60 c0 -29 -22 -55 -187 -223 l-188
-191 -2 -72 c-1 -40 -6 -75 -10 -78 -5 -3 -6 3 -2 12 4 12 3 15 -5 10 -9 -5
-12 13 -12 66 l0 72 200 202 c148 148 199 205 194 217 -3 10 -2 17 3 17 5 0 9
-15 9 -32z m-9192 -44 c9 -8 16 -20 16 -25 0 -5 215 -9 543 -9 l542 0 195
-195 195 -195 71 0 c55 0 73 -4 78 -15 4 -13 -8 -15 -82 -15 l-87 0 -193 193
-192 192 -533 0 c-495 0 -533 -1 -545 -17 -29 -39 -112 -11 -112 36 0 56 67
88 104 50z m6320 -16 c21 -29 20 -57 -1 -80 -21 -23 -77 -24 -95 0 -12 16 -50
17 -545 17 l-533 0 -192 -192 -193 -193 -87 0 c-74 0 -86 2 -82 15 5 11 23 15
78 15 l71 0 195 195 195 195 542 0 c328 0 543 4 543 9 0 19 32 41 60 41 18 0
34 -8 44 -22z m-6730 -584 c9 -8 16 -20 16 -25 0 -5 190 -9 478 -9 l477 0 190
-190 190 -190 240 0 c302 0 470 -9 455 -24 -7 -7 -124 -12 -356 -15 l-346 -3
-197 196 -197 196 -464 0 c-454 0 -465 0 -478 -20 -26 -42 -112 -15 -112 34 0
56 67 88 104 50z m7140 -16 c21 -29 20 -57 -1 -80 -22 -25 -79 -24 -95 2 -13
20 -24 20 -478 20 l-464 0 -197 -196 -197 -196 -345 3 c-190 2 -349 7 -353 12
-4 4 -4 10 -1 14 4 3 162 9 351 11 l344 5 188 188 189 189 477 0 c288 0 478 4
478 9 0 19 32 41 60 41 18 0 34 -8 44 -22z m-7344 -108 c11 -11 20 -24 20 -30
0 -7 199 -10 578 -10 l577 0 195 -195 195 -195 342 0 c309 0 396 -6 330 -24
-12 -3 -173 -6 -357 -6 l-335 0 -190 190 -190 190 -571 0 c-558 0 -571 0 -589
-20 -27 -30 -78 -27 -104 6 -27 35 -26 59 4 89 29 30 68 32 95 5z m7555 -15
c30 -30 31 -54 4 -89 -26 -33 -77 -36 -104 -6 -18 20 -31 20 -589 20 l-571 0
-190 -190 -190 -190 -335 0 c-184 0 -345 3 -357 6 -66 18 21 24 330 24 l342 0
195 195 195 195 577 0 c379 0 578 3 578 10 0 19 40 50 65 50 14 0 37 -11 50
-25z m-7997 -550 l30 -25 439 0 438 0 190 -190 190 -190 337 0 338 0 0 171 0
171 359 -4 c198 -2 363 -7 367 -11 4 -4 4 -10 0 -14 -4 -5 -163 -9 -352 -11
l-344 -3 0 -164 0 -165 -359 0 -359 0 -188 190 -187 190 -437 0 -437 0 -23
-25 c-27 -29 -56 -32 -88 -9 -46 32 -17 114 39 114 10 0 31 -11 47 -25z m8430
-1 c15 -10 22 -25 22 -49 0 -62 -67 -86 -110 -40 l-23 25 -437 0 -437 0 -187
-190 -188 -190 -359 0 -359 0 0 165 0 164 -344 3 c-189 2 -348 6 -352 11 -4 4
-4 10 0 14 4 4 169 9 367 11 l359 4 0 -171 0 -171 338 0 337 0 190 190 190
190 438 0 439 0 30 25 c34 29 55 31 86 9z m-8485 -144 c14 -20 24 -20 458 -20
l444 0 195 -195 195 -195 437 0 438 0 0 170 0 170 278 0 c250 0 319 -6 300
-25 -3 -4 -128 -9 -277 -12 l-271 -6 0 -164 0 -163 -462 0 -462 0 -189 190
-188 190 -442 0 c-431 0 -442 0 -455 -20 -15 -24 -64 -27 -86 -4 -21 20 -20
63 1 86 22 24 68 23 86 -2z m8539 -7 c22 -20 24 -66 2 -87 -22 -23 -71 -20
-86 4 -13 20 -24 20 -455 20 l-441 0 -190 -190 -189 -190 -462 0 -461 0 0 163
0 164 -271 6 c-149 3 -274 8 -277 12 -19 19 50 25 301 25 l277 0 0 -170 0
-170 438 0 437 0 195 195 195 195 444 0 c435 -1 444 0 458 20 17 24 59 26 85
3z m-7506 -345 l191 -190 67 -5 c36 -3 66 -10 66 -14 0 -5 -33 -9 -73 -9 l-72
0 -190 190 -190 190 -532 0 c-506 0 -555 2 -540 28 3 4 247 6 544 4 l538 -3
191 -191z m7657 186 c3 -3 3 -12 0 -20 -4 -12 -90 -14 -537 -14 l-531 0 -190
-190 -190 -190 -72 0 c-40 0 -73 4 -73 9 0 4 30 11 66 14 l67 5 191 191 191
191 475 3 c261 1 502 3 536 5 33 1 63 -1 67 -4z m-8386 -286 c23 -22 33 -23
201 -25 l176 -2 191 -191 190 -190 283 0 282 0 0 -480 0 -480 550 0 c472 0
550 -2 550 -14 0 -10 -13 -16 -37 -19 -35 -3 -35 -4 9 -5 26 -1 50 -6 53 -12
4 -6 -40 -10 -124 -10 -110 0 -131 2 -131 15 0 12 -16 15 -86 15 l-85 0 3 -52
3 -53 200 -5 200 -6 -212 -2 -213 -2 0 44 c0 70 -5 76 -62 76 l-51 0 6 -60 c6
-55 5 -60 -13 -60 -18 0 -20 7 -20 60 l0 59 -291 3 -292 3 -67 -62 c-38 -35
-76 -63 -86 -63 -13 0 11 30 74 93 l92 92 0 68 c0 37 -3 67 -8 67 -4 0 -79
-72 -167 -160 -100 -100 -167 -160 -180 -160 -14 0 30 50 150 170 93 94 178
170 187 170 17 0 18 23 18 365 l0 365 -273 0 -272 0 -195 195 -195 195 -171 0
c-158 0 -172 -1 -189 -20 -22 -24 -42 -25 -67 -3 -22 20 -23 61 -1 85 21 24
42 23 70 -4z m7915 -5 c22 -20 23 -61 1 -85 -21 -24 -45 -23 -68 2 -17 19 -31
20 -189 20 l-171 0 -195 -195 -195 -195 -272 0 -273 0 0 -180 c0 -153 -2 -180
-15 -180 -13 0 -15 29 -15 200 l0 200 282 0 283 0 190 190 191 191 177 2 c168
2 178 3 199 25 27 26 45 28 70 5z m-6442 -369 c0 -64 -3 -85 -12 -81 -9 2 -13
29 -14 78 -2 62 -4 74 -18 71 -9 -2 -16 2 -16 8 0 5 14 10 30 10 l30 0 0 -86z
m4960 66 c0 -5 -3 -9 -7 -9 -24 4 -28 -6 -25 -75 3 -59 1 -74 -12 -79 -14 -6
-16 6 -16 83 l0 90 30 0 c17 0 30 -4 30 -10z m-4758 -110 c12 -19 24 -20 384
-20 323 0 371 -2 371 -15 0 -13 -48 -15 -371 -15 -360 0 -372 -1 -384 -20 -8
-13 -23 -20 -45 -20 -41 0 -57 15 -57 55 0 40 16 55 57 55 22 0 37 -7 45 -20z
m4586 -2 c7 -7 12 -26 12 -43 0 -40 -16 -55 -57 -55 -22 0 -37 7 -45 20 -12
19 -24 20 -385 20 -325 0 -373 2 -373 15 0 13 48 15 373 15 361 0 373 1 385
20 14 23 70 28 90 8z m-3838 -177 c0 -16 -74 -21 -312 -21 l-238 0 0 -85 c0
-76 2 -86 25 -109 30 -30 32 -59 5 -86 -24 -24 -48 -25 -78 -4 -28 19 -29 65
-2 89 18 16 20 31 20 122 l0 103 290 0 c160 0 290 -4 290 -9z m3582 -111 l3
-110 -29 0 c-23 0 -27 3 -18 12 7 7 12 44 12 95 l0 83 -237 0 c-239 0 -313 5
-313 21 0 5 130 9 289 9 l290 0 3 -110z m-3582 -19 c0 -16 -44 -21 -202 -21
l-158 0 0 -143 c0 -131 2 -143 20 -155 13 -8 20 -23 20 -45 0 -41 -15 -57 -55
-57 -17 0 -36 5 -43 12 -19 19 -14 73 8 93 18 17 20 31 20 172 l0 153 195 0
c107 0 195 -4 195 -9z m3390 -46 c0 -33 -4 -45 -15 -45 -10 0 -15 10 -15 30
l0 30 -157 0 c-159 0 -203 5 -203 21 0 5 88 9 195 9 l195 0 0 -45z m0 -173 c0
-76 3 -91 20 -107 22 -20 27 -74 8 -93 -7 -7 -26 -12 -43 -12 -40 0 -55 16
-55 57 0 22 7 37 20 45 18 11 20 24 20 105 0 76 3 93 15 93 12 0 15 -16 15
-88z m230 69 c0 -22 -35 -51 -62 -51 -22 0 -58 34 -58 55 0 12 13 15 60 15 53
0 60 -2 60 -19z m510 -146 c0 -152 0 -155 22 -155 15 0 81 -59 207 -183 l186
-184 64 -6 c35 -4 281 -7 547 -7 463 0 484 1 493 19 23 43 95 33 107 -14 14
-58 -65 -103 -98 -57 -12 18 -44 19 -568 26 l-555 7 -190 189 -190 190 -358 0
-357 0 0 -25 0 -25 213 0 c183 0 214 -2 214 -15 0 -13 -31 -15 -214 -15 l-213
0 0 -50 0 -50 49 0 50 0 3 37 3 37 275 0 275 1 3 48 c2 33 7 47 18 47 10 0 14
-14 14 -58 l0 -57 168 -168 168 -168 267 1 c185 0 267 -3 267 -10 0 -8 -79
-10 -260 -8 -151 2 -255 -1 -250 -6 5 -5 194 -7 438 -4 422 5 430 5 457 26 33
26 62 28 87 5 20 -18 24 -73 6 -91 -20 -20 -86 -15 -98 8 -10 19 -21 20 -195
20 l-185 0 0 -55 c0 -42 -3 -55 -15 -55 -12 0 -15 13 -15 55 l0 55 -239 0
c-200 0 -241 2 -251 15 -9 11 -34 15 -95 15 -61 0 -86 4 -95 15 -11 13 -3 15
61 15 l74 1 -145 142 c-105 103 -146 137 -148 124 -3 -16 -25 -17 -278 -17
-237 0 -274 2 -274 15 0 13 35 15 259 15 211 0 260 3 264 14 13 32 -15 36
-275 36 l-258 0 0 -167 0 -168 55 3 c45 3 55 1 55 -12 0 -14 -35 -16 -342 -15
-189 1 -327 5 -308 9 l35 7 -37 2 c-21 0 -38 5 -38 10 0 16 64 21 301 21 l239
0 0 54 c0 29 3 81 6 115 l7 62 -54 -3 -54 -3 -3 -63 -3 -62 -209 2 c-277 4
-286 21 -15 28 l200 5 3 48 3 47 -80 0 c-65 0 -81 3 -81 15 0 12 16 15 80 15
l80 0 0 50 0 50 -80 0 c-64 0 -80 3 -80 15 0 12 16 15 80 15 l80 0 0 40 0 40
343 -2 342 -3 3 153 c2 126 5 152 17 152 13 0 15 -25 15 -155z m-4105 -55 c4
-6 -24 -10 -78 -10 -47 0 -99 -3 -116 -6 -31 -6 -31 -7 -31 -70 0 -50 -3 -64
-15 -64 -12 0 -15 16 -15 80 l0 80 124 0 c73 0 127 -4 131 -10z m3215 -170 l0
-180 -132 0 c-116 1 -131 2 -114 15 10 7 15 18 11 24 -4 8 26 11 95 11 65 0
99 -4 95 -10 -3 -5 -1 -10 4 -10 7 0 11 24 11 60 l0 60 -105 0 c-87 0 -105 3
-105 15 0 12 18 15 105 15 l105 0 0 74 0 74 -31 6 c-17 3 -69 6 -116 6 -54 0
-82 4 -78 10 4 6 58 10 131 10 l124 0 0 -180z m-3640 50 c0 -20 -5 -30 -15
-30 -8 0 -15 7 -15 15 0 13 -36 15 -260 15 -162 0 -260 4 -260 10 0 9 73 12
418 18 l132 2 0 -30z m-590 10 c0 -5 -22 -10 -50 -10 -27 0 -50 5 -50 10 0 6
23 10 50 10 28 0 50 -4 50 -10z m990 -65 c0 -12 -18 -15 -100 -15 l-100 0 0
-45 c0 -33 -4 -45 -15 -45 -11 0 -15 12 -15 45 l0 45 -85 0 -85 0 0 -45 c0
-33 -4 -45 -15 -45 -11 0 -15 12 -15 45 l0 45 -218 0 c-188 0 -219 2 -219 15
0 13 55 15 434 15 378 0 433 -2 433 -15z m-532 -78 c2 -19 -1 -27 -12 -27 -9
0 -16 7 -16 15 0 14 -32 15 -265 13 -230 -3 -265 -1 -265 12 0 13 37 15 278
15 l277 -1 3 -27z m-2092 -337 c148 -148 205 -199 217 -194 10 3 17 2 17 -4 0
-17 -58 -7 -87 16 -15 12 -102 96 -194 187 l-165 164 -65 2 c-48 1 -66 6 -66
15 0 11 18 14 71 14 l70 0 202 -200z m8591 177 c0 -10 -19 -15 -66 -16 -59 -2
-69 -5 -98 -34 -28 -26 -33 -28 -33 -12 0 10 12 32 27 47 24 26 33 28 98 28
53 0 72 -3 72 -13z m-8608 -47 c13 -19 27 -20 277 -20 228 0 264 -2 264 -15 0
-13 -36 -15 -266 -15 -242 0 -268 -2 -280 -17 -12 -17 -16 -15 -56 25 -42 42
-42 43 -23 58 25 18 65 10 84 -16z m1131 -24 c-21 -20 -550 -29 -550 -9 0 10
48 13 228 16 125 1 252 3 282 5 47 2 52 0 40 -12z m155 -36 l-49 -50 422 0
422 0 0 50 c0 43 3 50 20 50 17 0 20 -7 20 -45 l0 -45 244 0 c134 0 251 -3
260 -6 9 -3 16 -12 16 -20 0 -12 -112 -14 -723 -14 -711 0 -724 0 -742 -20
-17 -19 -31 -20 -262 -20 l-243 0 0 -150 0 -150 -292 0 -293 0 -208 208 c-145
144 -203 208 -191 210 11 3 86 -65 215 -194 l198 -197 113 6 c62 4 184 7 271
7 l157 0 0 165 0 165 278 0 278 0 49 50 c27 28 58 50 69 50 16 0 11 -10 -29
-50z m7315 -20 c-8 -5 -12 -10 -9 -10 3 0 -85 -90 -196 -200 l-201 -200 -292
0 -292 0 0 80 c0 64 3 80 15 80 12 0 15 -13 15 -58 l0 -59 273 -6 272 -6 195
194 c124 125 202 195 215 195 17 0 17 -2 5 -10z m-8337 -40 c19 -15 40 -20 90
-20 107 0 187 -11 187 -26 0 -11 -27 -14 -130 -14 -119 0 -130 -2 -140 -20 -8
-15 -21 -20 -48 -20 -46 0 -62 14 -62 54 0 60 54 84 103 46z m7954 -105 c-71
-70 -136 -125 -146 -125 -13 0 23 41 108 125 77 77 134 125 146 124 14 0 -16
-35 -108 -124z m-1347 90 c11 -13 -18 -15 -249 -15 -225 0 -261 2 -261 15 0
13 34 15 249 15 209 0 251 -2 261 -15z m-6240 -30 c0 -9 -9 -15 -25 -15 -16 0
-25 6 -25 15 0 9 9 15 25 15 16 0 25 -6 25 -15z m-730 -220 l196 -195 344 2
345 3 3 148 3 147 908 -2 c500 -2 913 -6 917 -10 4 -5 4 -11 0 -15 -4 -5 -410
-9 -902 -11 l-894 -3 0 -146 0 -146 -375 8 -375 7 -193 194 c-107 107 -200
194 -208 194 -12 0 -11 2 1 10 8 5 19 10 24 10 6 0 98 -88 206 -195z m8710
175 c12 -7 10 -11 -10 -19 -14 -5 -107 -92 -207 -194 l-181 -185 -376 -7 -376
-8 0 147 c0 122 2 146 15 146 12 0 15 -23 17 -127 l3 -128 345 -3 344 -2 196
195 c108 107 200 195 206 195 5 0 16 -4 24 -10z m-8250 -71 c9 -11 22 -18 30
-15 8 3 29 2 45 -3 23 -7 3 -9 -77 -10 -66 -1 -108 3 -108 9 0 6 9 19 21 31
25 25 65 19 89 -12z m7660 11 c24 -24 26 -57 3 -82 -21 -23 -68 -23 -85 0 -8
11 -31 21 -56 25 -71 9 -72 27 -3 31 23 1 46 9 53 18 26 32 61 35 88 8z m-982
-32 c7 -7 12 -16 12 -20 0 -9 -1224 -11 -1322 -1 -68 6 -88 18 -45 26 12 2
319 5 682 6 502 1 664 -2 673 -11z m-6698 -58 c-20 -13 -57 -13 -65 0 -4 6 11
10 37 10 31 0 39 -3 28 -10z m1343 -20 c13 -18 29 -19 440 -22 324 -2 429 -6
439 -15 10 -10 -75 -13 -421 -13 l-434 0 -23 -25 c-13 -14 -32 -25 -44 -25
-26 0 -60 34 -60 62 0 51 74 79 103 38z m4999 -7 c24 -21 23 -58 -2 -83 -27
-27 -56 -25 -84 5 l-23 25 -427 0 c-387 0 -484 6 -395 24 17 3 212 6 433 6
390 0 402 1 414 20 15 25 58 26 84 3z m-4172 -178 c0 -10 -10 -15 -30 -15 -20
0 -30 5 -30 15 0 10 10 15 30 15 20 0 30 -5 30 -15z m3320 -10 c0 -10 -10 -15
-30 -15 -20 0 -30 5 -30 15 0 10 10 15 30 15 20 0 30 -5 30 -15z m-4808 -85
c13 -20 24 -20 780 -20 423 0 768 -4 768 -8 0 -10 -655 -22 -1177 -22 l-352 0
-24 -24 -23 -23 24 -22 c23 -21 30 -21 375 -21 522 0 1177 -12 1177 -22 0 -4
-345 -8 -768 -8 -756 0 -767 0 -780 -20 -14 -23 -70 -28 -90 -8 -19 19 -15 75
7 90 20 14 20 14 0 26 -22 14 -26 71 -7 90 20 20 76 15 90 -8z m6326 -2 c18
-18 15 -77 -3 -85 -13 -5 -13 -8 5 -20 23 -16 28 -71 8 -91 -20 -20 -76 -15
-90 8 -13 20 -24 20 -780 20 -423 0 -768 4 -768 8 0 10 655 22 1177 22 l352 0
24 24 c26 25 26 39 1 29 -8 -3 -17 2 -20 11 -5 14 -45 16 -363 16 -525 0
-1181 12 -1181 22 0 4 345 8 768 8 756 0 767 0 780 20 14 23 70 28 90 8z
m-6528 -378 c0 -116 -2 -140 -15 -140 -12 0 -15 23 -17 123 l-3 122 -345 3
-344 2 -196 -195 c-108 -107 -200 -195 -206 -195 -5 0 -16 4 -24 10 -12 7 -10
11 10 19 14 5 106 92 205 193 l180 183 175 5 c96 3 266 7 378 8 l202 2 0 -140z
m7598 -71 c109 -110 196 -201 194 -204 -14 -13 -40 9 -222 190 l-196 195 -344
-2 -345 -3 -3 -148 -3 -147 -908 2 c-500 2 -913 6 -917 11 -4 4 -4 10 0 15 4
4 410 8 902 10 l894 3 0 146 0 146 375 -8 375 -7 198 -199z m-5908 166 c0 -10
-10 -15 -30 -15 -20 0 -30 5 -30 15 0 10 10 15 30 15 20 0 30 -5 30 -15z
m3330 0 c0 -10 -10 -15 -30 -15 -20 0 -30 5 -30 15 0 10 10 15 30 15 20 0 30
-5 30 -15z m-5170 -160 c0 -60 -3 -75 -15 -75 -12 0 -15 13 -15 55 l0 55 -163
0 c-90 0 -212 3 -271 7 l-107 6 -197 -196 c-129 -128 -205 -197 -218 -197 -15
0 39 60 190 210 l211 210 293 0 292 0 0 -75z m1014 50 l23 -25 427 0 c387 0
484 -6 395 -24 -17 -3 -212 -6 -433 -6 -390 0 -402 -1 -414 -20 -25 -41 -102
-14 -102 37 0 28 33 63 60 63 12 0 31 -11 44 -25z m5006 5 c24 -24 26 -57 3
-82 -22 -24 -69 -23 -85 2 -12 19 -24 20 -414 20 -221 0 -416 3 -433 6 -89 18
8 24 395 24 l427 0 23 25 c28 30 57 32 84 5z m1723 -188 c145 -144 203 -208
191 -210 -11 -3 -86 65 -215 194 l-198 197 -113 -6 c-62 -4 -184 -7 -270 -7
l-158 0 0 -165 0 -165 -278 0 -278 0 -49 -50 c-27 -27 -58 -50 -69 -50 -16 0
-11 10 29 50 l49 50 -427 0 -427 0 0 -50 c0 -43 -3 -50 -20 -50 -17 0 -20 7
-20 40 l0 40 -247 1 c-137 1 -261 5 -278 9 -24 6 -26 8 -7 9 12 0 22 7 22 16
0 13 87 15 724 15 631 0 725 2 736 15 10 13 52 15 261 15 l249 0 0 155 0 155
293 0 292 0 208 -208z m-8065 80 c11 -11 38 -22 61 -25 70 -9 71 -27 2 -31
-24 -1 -46 -9 -53 -18 -22 -29 -63 -33 -87 -9 -25 25 -27 58 -4 83 21 23 58
23 81 0z m7640 1 c-10 -2 -26 -2 -35 0 -10 3 -2 5 17 5 19 0 27 -2 18 -5z
m-7752 -25 c5 -7 3 -8 -5 -4 -8 5 -55 -34 -131 -109 -76 -76 -124 -116 -135
-113 -12 2 17 36 104 121 115 112 150 133 167 105z m8057 -177 l193 -190 67
-2 c48 -2 67 -6 67 -16 0 -10 -18 -13 -72 -13 l-72 0 -202 201 c-134 133 -207
199 -215 194 -8 -5 -10 -4 -5 3 19 31 55 5 239 -177z m-5677 157 c4 -5 5 -10
2 -13 -2 -3 -305 -8 -672 -11 -672 -6 -696 -5 -696 28 0 11 1355 7 1366 -4z
m5414 -13 c0 -8 -9 -24 -21 -36 -24 -24 -65 -19 -87 9 -7 9 -23 17 -35 18 -53
2 -67 5 -67 14 0 6 42 10 105 10 87 0 105 -3 105 -15z m-7360 -60 l0 -55 243
0 c231 0 245 -1 262 -20 15 -17 31 -20 100 -20 61 0 86 -4 95 -15 11 -13 3
-15 -61 -15 l-74 -1 130 -126 130 -126 288 2 c251 1 287 0 287 -14 0 -13 -34
-15 -265 -15 -146 0 -265 -4 -265 -8 0 -29 30 -32 282 -32 l258 0 -1 173 c0
94 -3 166 -6 160 -3 -8 -24 -13 -54 -13 -38 0 -49 4 -49 16 0 14 34 15 339 12
187 -1 343 -6 347 -10 18 -19 -24 -23 -272 -26 l-264 -3 0 -58 c0 -32 -3 -86
-6 -120 l-7 -61 51 0 c58 0 62 6 62 86 l0 54 213 -2 c277 -4 285 -21 12 -28
l-200 -5 -3 -52 -3 -53 80 0 c65 0 81 -3 81 -15 0 -12 -16 -15 -80 -15 l-80 0
0 -50 0 -50 80 0 c64 0 80 -3 80 -15 0 -12 -16 -15 -80 -15 l-80 0 0 -35 0
-35 -347 3 -348 2 -3 -153 c-2 -116 -6 -152 -15 -149 -9 2 -13 47 -15 155 -2
133 -5 152 -19 152 -9 0 -100 83 -202 183 l-186 184 -55 6 c-30 4 -276 7 -547
7 -472 0 -493 -1 -502 -19 -23 -43 -95 -33 -107 14 -14 58 65 103 98 57 12
-18 44 -19 568 -26 l555 -7 190 -189 190 -190 358 0 c350 0 357 0 357 20 0 19
-7 20 -219 20 -185 0 -220 2 -225 15 -5 13 24 15 219 15 l225 0 0 50 0 50 -49
0 c-48 0 -50 -1 -53 -32 l-3 -31 -282 2 -283 1 0 -50 c0 -38 -4 -50 -15 -50
-12 0 -15 14 -15 63 l0 62 -179 179 -179 179 -430 -5 c-422 -5 -430 -5 -457
-26 -33 -26 -62 -28 -87 -5 -20 18 -24 73 -6 91 20 20 86 15 98 -8 10 -19 21
-20 190 -20 l180 0 0 55 c0 42 3 55 15 55 12 0 15 -13 15 -55z m433 48 c-56
-2 -151 -2 -210 0 -59 1 -13 3 102 3 116 0 164 -2 108 -3z m7005 -85 c17 -17
15 -68 -5 -90 -21 -24 -54 -23 -86 2 -19 16 -40 20 -94 20 -104 0 -173 11
-173 26 0 11 26 14 125 14 114 0 125 2 135 20 12 23 78 28 98 8z m-398 -43 c0
-9 -9 -15 -25 -15 -16 0 -25 6 -25 15 0 9 9 15 25 15 16 0 25 -6 25 -15z
m-6544 -30 c17 -13 -12 -14 -253 -15 -236 0 -273 2 -273 15 0 22 496 22 526 0z
m764 0 c0 -13 -34 -15 -244 -15 -204 0 -246 2 -256 15 -11 13 17 15 244 15
221 0 256 -2 256 -15z m6424 -84 l38 -39 -22 -22 c-26 -26 -67 -21 -89 10 -13
19 -27 20 -272 20 -224 0 -259 2 -259 15 0 13 36 15 263 15 251 0 263 1 275
20 17 27 22 26 66 -19z m-644 -16 c0 -13 -38 -15 -282 -15 -184 0 -279 3 -272
10 5 5 105 11 234 13 124 1 246 3 273 5 36 1 47 -1 47 -13z m-7861 -61 c-32
-33 -36 -34 -107 -34 -53 0 -71 3 -66 12 5 8 2 9 -10 5 -9 -4 -15 -3 -12 2 3
4 38 9 78 10 69 2 75 4 108 37 27 27 36 31 38 18 2 -9 -11 -31 -29 -50z m6213
-41 l3 -58 54 -3 54 -3 -7 60 c-7 57 -6 61 14 61 18 0 20 -6 20 -60 l0 -59
297 -3 298 -3 66 63 c37 34 75 62 85 62 13 0 -10 -29 -74 -93 l-92 -92 0 -75
0 -75 168 168 c107 107 175 167 188 167 15 0 -29 -49 -156 -175 -97 -96 -181
-175 -188 -175 -9 0 -12 -84 -12 -360 l0 -360 273 0 272 0 195 -195 195 -195
171 0 c158 0 172 1 189 20 22 24 42 25 67 3 22 -20 23 -61 1 -85 -21 -24 -42
-23 -70 4 -23 22 -33 23 -201 25 l-176 2 -191 191 -190 190 -283 0 -282 0 0
480 0 480 -550 0 c-482 0 -550 2 -550 15 0 8 -9 15 -20 15 -11 0 -20 5 -20 10
0 6 50 10 130 10 80 0 130 -4 130 -10 0 -6 35 -10 86 -10 l85 0 -3 48 -3 47
-195 3 c-109 1 -199 7 -204 12 -7 7 65 10 207 10 l216 0 3 -57z m-3392 -43 c0
-5 -21 -10 -47 -11 -47 -1 -47 -1 -15 -10 60 -18 34 -29 -68 -29 l-100 0 0
-50 0 -50 100 0 c82 0 100 -3 100 -15 0 -12 -18 -15 -100 -15 l-100 0 0 -69 0
-68 31 -7 c17 -3 69 -6 116 -6 54 0 82 -4 78 -10 -4 -6 -58 -10 -131 -10
l-124 0 0 180 0 180 130 0 c80 0 130 -4 130 -10z m3200 -105 l0 -45 85 0 85 0
0 45 c0 33 4 45 15 45 11 0 15 -12 15 -45 l0 -45 233 -1 c127 0 226 -3 219 -6
-6 -2 -10 -9 -6 -14 3 -5 -170 -9 -430 -9 -381 0 -436 2 -436 15 0 12 17 15
95 15 l95 0 0 45 c0 33 4 45 15 45 11 0 15 -12 15 -45z m330 25 c0 -19 7 -20
258 -20 193 0 261 3 271 13 10 10 12 8 9 -10 l-3 -23 -280 -2 -280 -1 -3 31
c-2 24 1 32 12 32 9 0 16 -9 16 -20z m-330 -195 l0 -85 -124 0 c-73 0 -127 4
-131 10 -4 6 24 10 78 10 47 0 99 3 116 6 l31 7 0 68 c0 55 3 69 15 69 12 0
15 -16 15 -85z m200 65 c0 -19 7 -20 265 -20 146 0 265 -4 265 -8 0 -8 -319
-22 -492 -22 l-68 0 0 35 c0 24 5 35 15 35 8 0 15 -9 15 -20z m670 -30 c0 -5
-22 -10 -50 -10 -27 0 -50 5 -50 10 0 6 23 10 50 10 28 0 50 -4 50 -10z
m-4432 -42 c20 -20 15 -76 -8 -90 -18 -11 -20 -24 -20 -100 0 -72 -3 -88 -15
-88 -12 0 -15 16 -15 83 0 71 -3 87 -20 102 -22 20 -27 74 -8 93 7 7 26 12 43
12 17 0 36 -5 43 -12z m3760 0 c19 -19 14 -73 -8 -93 -18 -17 -20 -31 -20
-172 l0 -153 -195 0 c-107 0 -195 4 -195 9 0 16 44 21 203 21 l157 0 0 143 c0
131 -2 143 -20 155 -13 8 -20 23 -20 45 0 41 15 57 55 57 17 0 36 -5 43 -12z
m-3948 -238 c32 -32 24 -40 -40 -40 -66 0 -79 15 -38 44 30 21 54 20 78 -4z
m4128 4 c28 -19 29 -65 2 -89 -18 -16 -20 -31 -20 -122 l0 -103 -290 0 c-159
0 -290 4 -290 9 0 15 89 21 321 21 l229 0 0 85 c0 76 -2 86 -25 109 -30 30
-32 59 -5 86 24 24 48 25 78 4z m-4708 -289 l0 -205 -282 0 -283 0 -190 -190
-191 -191 -176 -2 c-168 -2 -178 -3 -201 -25 -28 -26 -44 -28 -69 -5 -22 20
-23 61 -1 85 21 24 45 23 68 -2 17 -19 31 -20 189 -20 l171 0 195 195 195 195
272 0 273 0 0 178 c0 98 3 182 7 185 19 20 23 -11 23 -198z m568 191 c-15 -11
-18 -29 -18 -100 l0 -86 238 0 c238 0 312 -5 312 -21 0 -5 -130 -9 -290 -9
l-290 0 0 103 c0 67 -4 107 -12 115 -9 9 -2 12 33 12 39 -1 42 -2 27 -14z
m172 -21 l0 -35 158 0 c158 0 202 -5 202 -21 0 -5 -88 -9 -195 -9 l-195 0 0
50 c0 38 4 50 15 50 10 0 15 -11 15 -35z m-388 -295 c12 -19 24 -20 384 -20
323 0 371 -2 371 -15 0 -13 -48 -15 -371 -15 -360 0 -372 -1 -384 -20 -8 -13
-23 -20 -45 -20 -41 0 -57 15 -57 55 0 40 16 55 57 55 22 0 37 -7 45 -20z
m4596 8 c7 -7 12 -26 12 -43 0 -40 -16 -55 -57 -55 -22 0 -37 7 -45 20 -12 19
-24 20 -385 20 -325 0 -373 2 -373 15 0 13 48 15 373 15 361 0 373 1 385 20
14 23 70 28 90 8z m-4798 -118 l0 -90 -30 0 c-16 0 -30 5 -30 10 0 6 8 10 18
10 15 0 17 8 14 65 -3 57 6 95 24 95 2 0 4 -40 4 -90z m4940 -1 c0 -55 3 -69
15 -69 8 0 15 -4 15 -10 0 -5 -13 -10 -30 -10 l-30 0 0 91 c0 80 2 90 15 79
11 -9 15 -32 15 -81z m-5360 -268 c0 -4 -30 -11 -66 -14 l-67 -5 -191 -190
-191 -191 -537 -3 c-296 -1 -538 1 -538 5 0 4 0 12 0 17 0 7 184 10 533 10
l532 0 190 190 190 190 72 0 c40 0 73 -4 73 -9z m6085 -181 l190 -190 532 0
c349 0 533 -3 533 -10 0 -5 0 -13 0 -17 0 -4 -242 -6 -538 -5 l-537 3 -191
191 -192 191 -71 5 c-91 6 -82 22 12 22 l72 0 190 -190z m-5245 -103 l0 -164
271 -6 c149 -3 274 -8 277 -12 19 -19 -50 -25 -300 -25 l-278 0 0 170 0 170
-438 0 -437 0 -195 -195 -195 -195 -444 0 c-435 1 -444 0 -458 -20 -17 -24
-59 -26 -85 -3 -22 20 -24 66 -2 87 22 23 71 20 86 -4 13 -20 24 -20 455 -20
l442 0 188 190 188 189 463 1 462 0 0 -163z m5182 -27 l188 -190 443 0 c431 0
442 0 455 20 15 24 64 27 86 4 21 -20 20 -63 -1 -86 -22 -24 -68 -23 -86 2
-14 20 -24 20 -458 20 l-444 0 -195 195 -195 195 -437 0 -438 0 0 -170 0 -170
-277 0 c-250 0 -320 6 -301 25 3 3 128 9 277 12 l271 6 0 164 0 163 462 0 461
0 189 -190z m-5332 -125 l0 -164 344 -3 c189 -2 348 -6 352 -10 4 -5 4 -11 0
-15 -4 -4 -169 -9 -367 -11 l-359 -4 0 171 0 171 -338 0 -337 0 -190 -190
-190 -190 -438 0 -439 0 -30 -25 c-34 -29 -55 -31 -86 -9 -30 21 -30 77 0 98
32 23 61 20 88 -9 l23 -25 437 0 436 0 185 189 184 189 363 1 362 1 0 -165z
m5276 -25 l187 -190 437 0 437 0 23 25 c27 29 56 32 88 9 46 -32 17 -114 -39
-114 -10 0 -31 11 -47 25 l-30 25 -439 0 -438 0 -190 190 -190 190 -337 0
-338 0 0 -171 0 -171 -359 4 c-198 2 -363 7 -367 11 -4 4 -4 10 0 15 4 4 163
8 352 10 l344 3 0 164 0 165 359 0 359 0 188 -190z m-4589 -356 c66 -18 -21
-24 -330 -24 l-342 0 -195 -195 -195 -195 -576 0 -576 0 -11 -25 c-24 -51
-106 -40 -126 18 -22 62 74 117 119 67 18 -20 26 -20 589 -20 l571 0 190 190
190 190 335 0 c184 0 345 -3 357 -6z m3878 -184 l190 -190 571 0 c563 0 571 0
589 20 45 50 141 -5 119 -67 -20 -58 -102 -69 -126 -18 l-11 25 -576 0 -576 0
-195 195 -195 195 -342 0 c-198 0 -344 4 -348 9 -10 17 25 19 370 20 l340 1
190 -190z m-3865 44 c15 -15 -153 -24 -455 -24 l-240 0 -190 -190 -190 -190
-477 0 c-288 0 -478 -4 -478 -9 0 -19 -32 -41 -60 -41 -51 0 -78 64 -43 102
22 25 79 24 95 -2 13 -20 24 -20 478 -20 l464 0 197 196 197 196 346 -3 c232
-3 349 -8 356 -15z m3870 -179 l196 -195 464 0 c454 0 465 0 478 20 15 25 68
27 94 3 37 -34 10 -103 -42 -103 -28 0 -60 22 -60 41 0 5 -190 9 -478 9 l-477
0 -190 190 -190 190 -240 0 c-270 0 -470 9 -458 21 12 12 85 15 407 17 l300 2
196 -195z m3579 -227 c1 -40 3 -73 4 -74 1 -1 86 -88 190 -192 168 -171 187
-194 185 -221 -1 -17 -6 -31 -10 -31 -4 0 -6 14 -4 30 2 17 1 28 -2 25 -3 -3
-93 81 -199 187 l-193 193 0 73 c0 53 3 71 12 66 8 -5 9 -2 5 10 -4 9 -3 15 2
12 4 -3 9 -38 10 -78z m459 -159 l180 -176 7 -377 8 -376 -146 0 -146 0 -3
-894 c-2 -492 -6 -898 -10 -902 -5 -4 -11 -4 -15 0 -5 4 -9 417 -11 917 l-2
908 147 3 148 3 3 345 2 344 -195 196 c-107 108 -195 199 -195 202 0 4 3 14 6
23 5 13 10 11 24 -12 10 -15 99 -107 198 -204z m-337 212 c7 12 9 11 9 -1 0
-8 88 -103 195 -210 l195 -195 0 -292 0 -293 -170 0 -170 0 0 -985 c0 -869 -2
-985 -15 -985 -13 0 -15 118 -15 1000 l0 1000 165 0 165 0 0 148 c0 82 3 204
7 271 l6 122 -196 197 c-128 128 -197 205 -196 217 0 13 3 15 6 6 5 -11 7 -11
14 0z m-1881 -534 l0 -532 190 -190 190 -190 0 -72 c0 -42 -4 -73 -10 -73 -5
0 -10 15 -11 33 -2 96 1 91 -198 292 l-190 190 -3 538 c-3 506 -2 537 15 537
16 0 17 -32 17 -533z m-106 387 c23 -22 20 -71 -4 -86 -20 -13 -20 -24 -20
-454 l0 -442 190 -189 190 -190 0 -461 0 -462 -163 0 -164 0 -6 -271 c-3 -149
-9 -274 -12 -277 -19 -19 -25 51 -25 301 l0 277 170 0 170 0 0 438 0 437 -195
195 -195 195 0 444 c1 435 0 444 -20 458 -24 17 -26 59 -3 85 20 22 66 24 87
2z m-140 -56 c23 -32 20 -61 -9 -88 l-25 -23 0 -437 0 -436 190 -188 190 -189
0 -358 0 -359 -165 0 -164 0 -3 -344 c-2 -189 -6 -348 -10 -352 -5 -4 -11 -4
-15 0 -4 4 -9 169 -11 367 l-4 359 171 0 171 0 0 338 0 337 -190 190 -190 190
0 438 0 439 -25 30 c-29 34 -31 55 -9 86 10 15 25 22 49 22 24 0 39 -7 49 -22z
m3567 -29 c25 -25 19 -66 -11 -88 -19 -13 -20 -29 -20 -505 0 -270 3 -516 7
-546 l6 -55 182 -185 182 -185 7 -382 6 -383 -167 -2 -168 -3 -3 -190 c-1
-104 -5 -197 -8 -205 -15 -42 -24 33 -24 216 l0 201 92 7 c50 3 126 6 170 6
l78 0 0 357 0 358 -190 190 -189 190 -7 554 c-7 520 -8 555 -26 573 -25 25
-23 63 4 82 30 22 54 20 79 -5z m-9007 -14 c-5 -11 -23 -15 -78 -15 l-71 0
-195 -195 -195 -195 -542 0 c-328 0 -543 -4 -543 -9 0 -19 -32 -41 -60 -41
-51 0 -78 64 -43 102 21 23 77 24 95 1 12 -17 50 -18 545 -18 l533 0 192 193
193 192 87 0 c74 0 86 -2 82 -15z m3324 -177 l192 -193 533 0 c495 0 533 1
545 18 17 22 70 22 94 0 37 -34 10 -103 -42 -103 -28 0 -60 22 -60 41 0 5
-215 9 -543 9 l-542 0 -195 195 -195 195 -72 0 c-58 0 -73 3 -73 15 0 12 16
15 82 15 l83 0 193 -192z m9395 11 c37 -18 67 -37 67 -41 0 -19 -151 -308
-161 -308 -14 0 -199 95 -224 115 -19 16 -19 16 5 9 13 -4 65 -26 114 -51 85
-41 92 -43 104 -26 22 29 122 231 122 246 0 7 -43 37 -95 66 -162 89 -120 83
68 -10z m-12750 41 c16 0 26 -4 22 -10 -3 -5 -21 -10 -38 -10 -29 0 -55 -23
-229 -196 l-196 -197 -451 5 c-248 2 -451 1 -451 -3 0 -17 -33 -39 -60 -39
-31 0 -60 31 -60 64 0 53 84 78 114 34 16 -22 16 -22 453 -26 l438 -4 195 197
c153 154 199 195 215 191 11 -3 33 -6 48 -6z m3287 -186 l195 -196 438 4 c437
4 437 4 453 26 30 43 114 19 114 -32 0 -35 -28 -66 -60 -66 -27 0 -60 22 -60
39 0 4 -203 5 -451 3 l-451 -5 -193 194 c-147 146 -201 195 -222 197 -70 7
-59 18 32 31 6 0 98 -87 205 -195z m2772 89 c24 -21 23 -45 -2 -68 -19 -17
-20 -31 -20 -189 l0 -171 195 -195 195 -195 0 -272 0 -273 475 0 475 0 0 -565
c0 -496 -2 -565 -15 -565 -13 0 -15 68 -15 550 l0 550 -480 0 -480 0 0 283 0
282 -189 189 -188 188 -5 179 c-4 166 -6 181 -26 202 -26 28 -28 44 -5 69 20
22 61 23 85 1z m2850 -30 c24 -22 23 -54 -4 -88 -21 -27 -21 -35 -26 -457 l-5
-430 192 -192 191 -191 1 -285 2 -285 -167 -9 -166 -9 0 -237 c0 -131 -3 -252
-6 -269 -17 -83 -24 -6 -24 259 l0 290 170 0 170 0 0 258 0 258 -195 203 -195
203 0 438 c0 429 0 440 -20 450 -23 12 -28 78 -8 98 17 17 68 15 90 -5z m-151
-94 c24 -24 20 -65 -9 -87 -9 -7 -17 -29 -18 -53 -4 -69 -22 -68 -31 3 -4 25
-14 48 -25 56 -26 19 -24 67 4 86 30 22 54 20 79 -5z m-3847 -40 c33 -26 36
-77 6 -104 -20 -18 -20 -31 -20 -589 l0 -571 190 -190 190 -190 0 -335 c0
-184 -3 -345 -6 -357 -18 -66 -24 21 -24 330 l0 342 -195 195 -195 195 0 577
c0 379 -3 578 -10 578 -19 0 -50 40 -50 65 0 30 41 75 68 75 11 0 31 -9 46
-21z m-1207 -281 c468 -3 502 -2 512 15 14 22 68 23 93 0 37 -34 10 -103 -42
-103 -27 0 -60 22 -60 39 0 10 -361 21 -727 22 l-291 0 -76 79 c-106 111 -100
138 7 32 l82 -82 502 -2z m-3717 142 c0 -6 -34 -46 -76 -90 l-77 -80 -60 0
c-56 0 -59 1 -41 15 10 8 35 15 54 15 31 0 46 10 110 75 73 73 90 86 90 65z
m4792 -77 c25 -22 24 -79 -2 -95 -20 -13 -20 -24 -20 -478 l0 -464 196 -197
196 -197 -3 -346 c-3 -232 -8 -349 -15 -356 -15 -15 -24 153 -24 455 l0 240
-190 190 -190 190 0 477 c0 288 -4 478 -9 478 -19 0 -41 32 -41 60 0 51 64 78
102 43z m-5971 -50 c10 -17 40 -18 427 -16 347 2 414 0 400 -11 -13 -10 -109
-14 -415 -19 -256 -5 -399 -11 -401 -17 -15 -43 -81 -54 -106 -18 -21 29 -20
57 1 80 21 24 79 24 94 1z m5371 -360 c23 -21 24 -77 1 -95 -17 -12 -18 -50
-18 -545 l0 -533 193 -192 192 -193 0 -83 c0 -66 -3 -82 -15 -82 -12 0 -15 15
-15 73 l0 72 -195 195 -195 195 0 542 c0 328 -4 543 -9 543 -19 0 -41 32 -41
60 0 51 64 78 102 43z m4078 2 c19 -23 15 -67 -9 -86 -21 -17 -21 -22 -21
-376 0 -525 -12 -1173 -22 -1173 -4 0 -8 345 -8 768 0 756 0 767 -20 780 -23
14 -28 70 -8 90 17 17 73 15 88 -3z m-4198 -252 c26 -23 24 -78 -4 -97 -22
-16 -22 -16 -26 -452 l-5 -436 196 -197 196 -196 -6 -42 c-7 -51 -23 -57 -23
-10 0 29 -21 54 -196 229 l-197 196 5 451 c2 248 1 451 -3 451 -17 0 -39 33
-39 60 0 51 64 78 102 43z m-180 -160 c24 -21 24 -79 1 -94 -17 -10 -18 -44
-15 -512 l2 -502 82 -82 c46 -46 79 -83 75 -83 -21 0 -68 35 -123 92 l-62 63
-5 505 c-4 353 -9 506 -16 508 -44 15 -55 81 -19 106 29 21 57 20 80 -1z
m4098 -253 c27 -27 25 -56 -5 -84 l-25 -23 0 -427 c0 -387 -6 -484 -24 -395
-3 17 -6 212 -6 433 0 390 -1 402 -20 414 -41 25 -14 102 37 102 12 0 32 -9
43 -20z m-1692 -42 c-2 -9 19 -14 72 -18 49 -3 76 -9 78 -17 1 -10 -20 -13
-83 -13 l-85 0 0 30 c0 17 5 30 10 30 6 0 9 -6 8 -12z m7968 -73 c20 -8 47
-12 60 -9 63 16 103 -30 70 -81 -25 -39 -96 -27 -96 15 0 12 -16 30 -40 45
-22 14 -40 30 -40 35 0 13 4 13 46 -5z m-7006 -492 c0 -378 -2 -433 -15 -433
-13 0 -15 55 -15 433 0 379 2 434 15 434 13 0 15 -55 15 -434z m-772 405 c19
-19 15 -75 -8 -91 -19 -13 -20 -27 -22 -382 -2 -284 -6 -369 -15 -373 -10 -3
-13 75 -13 370 0 362 -1 374 -20 386 -13 8 -20 23 -20 45 0 41 15 57 55 57 17
0 36 -5 43 -12z m406 -240 c21 -30 20 -54 -4 -78 -27 -27 -56 -25 -86 5 -23
23 -33 25 -109 25 l-84 0 -3 -270 c-2 -198 -6 -272 -15 -282 -10 -10 -13 47
-13 285 l0 297 103 0 c91 0 106 2 122 20 24 27 70 26 89 -2z m234 -180 c7 -7
12 -26 12 -43 0 -40 -16 -55 -57 -55 -22 0 -37 7 -45 20 -12 18 -24 20 -155
20 l-143 0 0 -157 c0 -159 -5 -203 -21 -203 -5 0 -9 88 -9 195 l0 195 153 0
c141 0 155 2 172 20 20 22 74 27 93 8z m-8344 -241 c-3 -8 -18 -24 -34 -36
-17 -12 -30 -30 -30 -41 0 -28 -37 -59 -63 -52 -53 12 -67 53 -31 89 20 20 30
23 59 17 20 -3 35 -2 35 3 0 11 37 31 57 32 7 1 10 -5 7 -12z m9326 -17 c0
-20 -5 -30 -15 -30 -10 0 -15 10 -15 30 0 20 5 30 15 30 10 0 15 -10 15 -30z
m5935 -104 c14 -9 44 -85 105 -267 l86 -254 74 -43 c80 -46 63 -48 -33 -4
l-57 26 -61 191 c-34 104 -72 222 -84 260 -20 60 -28 73 -61 93 -28 17 -32 21
-14 17 14 -4 34 -13 45 -19z m-1705 -156 c-6 -11 -13 -20 -16 -20 -2 0 0 9 6
20 6 11 13 20 16 20 2 0 0 -9 -6 -20z m-35 -69 c-21 -43 -29 -39 -8 4 9 19 18
33 21 31 2 -2 -4 -18 -13 -35z m-49 -93 c-9 -12 -16 -19 -16 -15 0 11 24 47
28 42 2 -2 -3 -14 -12 -27z m-117 -232 c-49 -98 -89 -184 -89 -191 0 -7 14
-18 30 -25 17 -7 33 -17 36 -21 6 -10 -39 8 -72 28 -21 13 -19 17 79 203 55
105 101 189 103 188 1 -2 -38 -84 -87 -182z m-13041 -168 l-36 -33 -32 -195
c-17 -107 -38 -225 -47 -263 -14 -66 -16 -68 -71 -105 -98 -64 -112 -52 -17
13 31 21 57 48 60 59 2 12 25 130 51 264 l47 243 36 24 c49 34 51 31 9 -7z
m13273 -411 l64 -33 85 -253 85 -252 415 -213 c503 -259 526 -271 522 -285 -1
-6 3 -11 10 -11 6 0 9 -2 6 -5 -3 -4 -23 4 -44 16 -22 12 -235 121 -474 242
-239 120 -441 224 -447 229 -7 6 -33 76 -58 157 -25 80 -50 157 -55 171 -5 14
-21 64 -35 111 l-25 86 -56 29 c-48 25 -75 44 -61 44 2 0 33 -15 68 -33z
m-11426 -455 c-6 -5 -34 -28 -62 -51 -34 -27 -53 -51 -53 -64 -1 -12 -20 -130
-43 -262 l-43 -239 -69 -50 c-38 -27 -209 -144 -380 -260 -170 -116 -330 -225
-354 -244 -63 -48 -101 -66 -101 -49 0 14 40 43 545 390 176 121 323 223 327
226 4 3 28 114 53 246 25 132 49 250 52 262 5 21 105 101 128 102 6 1 6 -2 0
-7z m9268 -867 l34 -100 169 -85 c583 -297 701 -359 696 -365 -4 -3 7 -1 23 5
72 27 136 -39 88 -92 -17 -19 -59 -24 -81 -9 -8 5 -17 24 -21 42 -6 30 -16 38
-86 74 -44 22 -138 73 -210 112 -71 39 -236 124 -366 189 l-235 118 -19 65
c-10 36 -21 71 -25 76 -10 13 -18 87 -9 77 4 -4 23 -52 42 -107z m-6988 -127
c-9 -60 -8 -55 -24 -129 l-12 -56 -282 -193 c-155 -106 -294 -203 -308 -216
-14 -14 -70 -55 -125 -92 -90 -61 -99 -70 -102 -101 -6 -56 -53 -78 -100 -45
-47 33 -9 108 53 103 16 -2 36 -7 43 -12 9 -7 11 -6 7 4 -3 9 67 64 217 167
577 398 583 402 586 425 5 41 34 182 39 190 11 19 14 2 8 -45z m5948 -35 c4
-38 7 -89 7 -115 l0 -48 149 0 149 0 6 31 c3 17 6 69 6 116 0 54 4 82 10 78 6
-4 10 -58 10 -131 l0 -124 -180 0 -180 0 0 130 c0 139 13 174 23 63z m-234
-235 l1 -248 63 -1 c34 -1 109 -4 166 -8 l104 -6 -1 -285 -2 -285 -192 -191
-191 -192 5 -430 c5 -422 5 -430 26 -457 26 -33 28 -62 5 -87 -18 -20 -73 -24
-91 -6 -20 20 -15 86 8 98 20 10 20 21 20 450 l0 438 195 203 195 203 0 258 0
258 -170 0 -170 0 0 283 c0 156 3 287 7 291 16 16 21 -48 22 -286z m133 72 l3
-195 168 -3 168 -2 -7 -383 -7 -382 -182 -185 -182 -185 -6 -55 c-4 -30 -7
-276 -7 -547 0 -472 1 -493 19 -502 43 -23 33 -95 -14 -107 -58 -14 -103 65
-57 98 18 12 19 44 26 568 l7 555 189 190 190 190 0 358 0 357 -72 0 c-40 0
-117 3 -170 7 l-98 6 0 198 c0 108 3 205 6 214 16 41 24 -15 26 -195z m-2468
163 c3 -21 6 -145 6 -275 l0 -238 85 0 c76 0 86 2 109 25 30 30 59 32 86 5 24
-24 25 -48 4 -78 -19 -28 -65 -29 -89 -2 -16 18 -31 20 -122 20 l-103 0 0 290
c0 266 8 349 24 253z m130 15 c3 -13 6 -94 6 -180 l0 -158 143 0 c131 0 143 2
155 20 14 23 70 28 90 8 16 -16 16 -70 0 -86 -19 -19 -73 -14 -93 8 -17 18
-31 20 -172 20 l-153 0 0 195 c0 178 8 233 24 173z m525 -420 c0 -244 -3 -437
-6 -430 -2 6 -9 10 -14 6 -5 -3 -9 170 -9 430 0 381 2 436 15 436 13 0 15 -55
14 -442z m131 -123 l0 -565 -475 0 -475 0 0 -273 0 -272 -195 -195 -195 -195
0 -171 c0 -158 1 -172 20 -189 24 -22 25 -42 3 -67 -20 -22 -61 -23 -85 -1
-24 21 -23 42 4 70 22 23 23 33 25 201 l2 176 191 191 190 190 0 283 0 282
480 0 480 0 0 550 c0 482 2 550 15 550 13 0 15 -69 15 -565z m280 -420 l0
-985 170 0 170 0 0 -293 0 -292 -195 -195 c-107 -107 -195 -200 -195 -207 0
-7 -7 -10 -15 -7 -8 4 -15 11 -15 17 0 6 88 100 197 209 l196 197 -6 128 c-4
70 -7 192 -7 271 l0 142 -165 0 -165 0 0 1000 c0 882 2 1000 15 1000 13 0 15
-116 15 -985z m-3708 882 l-82 -82 -2 -502 c-3 -468 -2 -502 15 -512 22 -14
23 -68 0 -93 -34 -37 -103 -10 -103 42 0 27 18 54 41 62 7 2 12 155 16 511 l6
507 78 75 c110 105 137 98 31 -8z m3881 16 c4 -38 7 -443 7 -900 l0 -833 146
0 147 0 -8 -376 -7 -375 -189 -187 c-104 -103 -192 -195 -195 -205 -6 -20 -24
-13 -24 11 0 9 88 104 195 212 l195 196 -2 344 -3 345 -147 3 -148 3 0 883 c0
486 3 898 6 915 10 50 21 36 27 -36z m390 -395 c4 -227 7 -572 7 -766 0 -349
0 -354 21 -371 24 -19 28 -63 9 -86 -15 -18 -71 -20 -88 -3 -20 20 -15 76 8
90 20 13 20 24 20 780 0 423 4 768 8 768 5 0 12 -186 15 -412z m-273 -24 l0
-427 25 -23 c14 -13 25 -32 25 -44 0 -26 -34 -60 -62 -60 -52 0 -80 76 -38
102 19 12 20 24 20 414 0 221 3 416 6 433 18 89 24 -8 24 -395z m150 341 c0
-26 -3 -33 -15 -29 -9 4 -15 19 -15 35 0 19 5 29 15 29 10 0 15 -11 15 -35z
m-1666 -800 c-4 -10 -26 -15 -77 -17 -53 -2 -71 -6 -69 -16 1 -8 -2 -11 -8 -7
-5 3 -10 17 -10 31 0 24 2 24 85 24 70 0 83 -3 79 -15z m-334 -478 l0 -72
-190 -190 -190 -190 0 -532 c0 -501 -1 -533 -17 -533 -17 0 -18 31 -15 537 l3
538 191 191 191 192 5 71 c6 91 22 82 22 -12z m2633 -767 c4 -16 4 -36 1 -44
-3 -8 3 -19 14 -25 44 -23 35 -95 -13 -107 -58 -14 -103 65 -56 98 11 8 21 32
25 61 8 54 21 61 29 17z m-877 -213 c1 -28 -19 -52 -185 -220 -102 -104 -187
-189 -188 -191 -1 -1 -3 -31 -4 -67 -1 -47 -6 -66 -16 -66 -10 0 -13 18 -13
71 l0 70 200 201 c176 177 199 203 193 225 -3 14 -2 21 3 17 5 -5 9 -23 10
-40z"/>
<path d="M15340 18837 l0 -77 46 0 46 0 -32 58 c-60 106 -60 106 -60 19z"/>
<path d="M3883 13263 c71 -2 183 -2 250 0 67 1 10 3 -128 3 -137 0 -192 -2
-122 -3z"/>
<path d="M5530 11749 c0 -5 5 -7 10 -4 6 3 10 8 10 11 0 2 -4 4 -10 4 -5 0
-10 -5 -10 -11z"/>
</g>
</svg>
